<svg width="104" height="89" viewBox="0 0 104 89" fill="none" xmlns="http://www.w3.org/2000/svg">
<path d="M49.73 0.209991C56.0954 0.211867 62.2755 2.3521 67.2788 6.28725C72.2821 10.2224 75.8183 15.7243 77.32 21.91C79.8191 20.7019 82.5586 20.073 85.3344 20.07C88.1103 20.0671 90.851 20.6902 93.3528 21.893C95.8545 23.0957 98.0528 24.8472 99.784 27.0171C101.515 29.1869 102.735 31.7192 103.352 34.4256C103.969 37.1319 103.968 39.9427 103.349 42.6485C102.729 45.3544 101.508 47.8858 99.775 50.0543C98.0421 52.2228 95.8424 53.9725 93.3397 55.1733C90.8371 56.3742 88.0958 56.9951 85.32 56.99H49.73C42.2005 56.99 34.9794 53.9989 29.6552 48.6747C24.3311 43.3506 21.34 36.1295 21.34 28.6C21.34 21.0705 24.3311 13.8494 29.6552 8.52522C34.9794 3.20107 42.2005 0.209991 49.73 0.209991Z" fill="url(#paint0_radial_1_444)"/>
<path style="mix-blend-mode:overlay" opacity="0.5" d="M46.1 27.34C53.49 21.34 56.38 12.21 52.54 6.93998C48.7 1.66998 39.61 2.25997 32.21 8.25997C24.81 14.26 21.94 23.39 25.77 28.66C29.6 33.93 38.7 33.33 46.1 27.34Z" fill="url(#paint1_radial_1_444)"/>
<path style="mix-blend-mode:overlay" opacity="0.3" d="M83.2899 35.13C87.3599 31.83 88.9399 26.81 86.8399 23.92C84.7399 21.03 79.7299 21.35 75.6599 24.64C71.5899 27.93 69.9999 33 72.1199 35.85C74.2399 38.7 79.2299 38.42 83.2899 35.13Z" fill="url(#paint2_radial_1_444)"/>
<path style="mix-blend-mode:overlay" opacity="0.2" d="M92.31 42.31C96.78 37.79 101.39 36.02 102.62 38.36C103.85 40.7 101.22 46.26 96.75 50.78C92.28 55.3 87.66 57.06 86.44 54.73C85.22 52.4 87.84 46.83 92.31 42.31Z" fill="url(#paint3_radial_1_444)"/>
<path d="M29.2101 15.56C35.5746 15.5606 41.7543 17.7005 46.7562 21.6361C51.7581 25.5716 55.292 31.0742 56.7901 37.26C59.2892 36.0519 62.0287 35.423 64.8045 35.42C67.5803 35.4171 70.3211 36.0402 72.8228 37.243C75.3246 38.4457 77.5228 40.1972 79.2541 42.3671C80.9853 44.5369 82.2049 47.0692 82.8221 49.7756C83.4392 52.482 83.4381 55.2927 82.8188 57.9986C82.1995 60.7044 80.978 63.2358 79.2451 65.4043C77.5121 67.5728 75.3125 69.3225 72.8098 70.5233C70.3071 71.7242 67.5659 72.3451 64.7901 72.34H29.2101C21.6806 72.34 14.4594 69.3489 9.13528 64.0248C3.81113 58.7006 0.820068 51.4795 0.820068 43.95C0.820068 36.4205 3.81113 29.1994 9.13528 23.8752C14.4594 18.5511 21.6806 15.56 29.2101 15.56Z" fill="url(#paint4_radial_1_444)"/>
<path style="mix-blend-mode:overlay" d="M25.57 42.69C32.96 36.69 35.85 27.56 32.02 22.29C28.19 17.02 19.08 17.61 11.69 23.61C4.30004 29.61 1.41002 38.74 5.24002 44C9.07002 49.26 18.18 48.68 25.57 42.69Z" fill="url(#paint5_radial_1_444)"/>
<path style="mix-blend-mode:overlay" opacity="0.4" d="M62.7699 50.48C66.8299 47.18 68.4199 42.16 66.3099 39.27C64.1999 36.38 59.2 36.7 55.14 39.99C51.08 43.28 49.49 48.31 51.6 51.2C53.71 54.09 58.7099 53.77 62.7699 50.48Z" fill="url(#paint6_radial_1_444)"/>
<path style="mix-blend-mode:overlay" opacity="0.2" d="M71.78 57.66C76.25 53.14 80.86 51.37 82.09 53.71C83.32 56.05 80.69 61.6 76.22 66.13C71.75 70.66 67.14 72.41 65.91 70.07C64.68 67.73 67.31 62.18 71.78 57.66Z" fill="url(#paint7_radial_1_444)"/>
<path d="M28.18 86.94C27.6349 87.8842 26.7372 88.5732 25.6842 88.8554C24.6311 89.1376 23.5091 88.99 22.565 88.445C21.6208 87.9 20.9318 87.0022 20.6496 85.9492C20.3673 84.8962 20.5149 83.7742 21.06 82.83C22.19 80.83 29.21 76.92 29.21 76.92C29.21 76.92 29.31 85 28.18 86.94Z" fill="url(#paint8_radial_1_444)"/>
<path style="mix-blend-mode:overlay" d="M21.18 86.26C20.54 84.59 20.93 82.84 22.04 82.34C23.15 81.84 24.58 82.79 25.22 84.46C25.86 86.13 25.47 87.88 24.35 88.37C23.23 88.86 21.82 87.92 21.18 86.26Z" fill="url(#paint9_radial_1_444)"/>
<path d="M45.37 86.94C45.1001 87.4075 44.7408 87.8173 44.3126 88.1459C43.8844 88.4746 43.3956 88.7156 42.8742 88.8554C42.3528 88.9951 41.809 89.0308 41.2738 88.9604C40.7386 88.89 40.2225 88.7149 39.755 88.445C39.2875 88.1751 38.8777 87.8158 38.5491 87.3876C38.2204 86.9594 37.9794 86.4706 37.8396 85.9492C37.6998 85.4278 37.6642 84.884 37.7346 84.3488C37.805 83.8136 37.9801 83.2975 38.25 82.83C39.39 80.83 46.41 76.92 46.41 76.92C46.41 76.92 46.51 85 45.37 86.94Z" fill="url(#paint10_radial_1_444)"/>
<path style="mix-blend-mode:overlay" d="M38.3699 86.26C37.7299 84.59 38.1199 82.84 39.2399 82.34C40.3599 81.84 41.7699 82.79 42.4099 84.46C43.0499 86.13 42.6599 87.88 41.5399 88.37C40.4199 88.86 38.9999 87.92 38.3699 86.26Z" fill="url(#paint11_radial_1_444)"/>
<path d="M62.56 86.94C62.0149 87.8842 61.1172 88.5732 60.0642 88.8554C59.0112 89.1376 57.8891 88.99 56.945 88.445C56.0008 87.9 55.3118 87.0022 55.0296 85.9492C54.7473 84.8962 54.8949 83.7742 55.44 82.83C56.58 80.83 63.6 76.92 63.6 76.92C63.6 76.92 63.7 85 62.56 86.94Z" fill="url(#paint12_radial_1_444)"/>
<path style="mix-blend-mode:overlay" d="M55.5601 86.26C54.9301 84.59 55.3101 82.84 56.4301 82.34C57.5501 81.84 58.9701 82.79 59.6001 84.46C60.2301 86.13 59.8501 87.88 58.7401 88.37C57.6301 88.86 56.2001 87.92 55.5601 86.26Z" fill="url(#paint13_radial_1_444)"/>
<defs>
<radialGradient id="paint0_radial_1_444" cx="0" cy="0" r="1" gradientUnits="userSpaceOnUse" gradientTransform="translate(39.09 8.00999) rotate(180) scale(70.49 70.49)">
<stop stop-color="#BAD0D6"/>
<stop offset="0.2" stop-color="#9BBAC2"/>
<stop offset="1" stop-color="#5D8BB8"/>
</radialGradient>
<radialGradient id="paint1_radial_1_444" cx="0" cy="0" r="1" gradientUnits="userSpaceOnUse" gradientTransform="translate(36.7998 9.26158) rotate(53.8543) scale(11.7774 17.2088)">
<stop stop-color="white"/>
<stop offset="0.1" stop-color="white" stop-opacity="0.85"/>
<stop offset="0.29" stop-color="white" stop-opacity="0.59"/>
<stop offset="0.47" stop-color="white" stop-opacity="0.38"/>
<stop offset="0.63" stop-color="white" stop-opacity="0.22"/>
<stop offset="0.78" stop-color="white" stop-opacity="0.1"/>
<stop offset="0.91" stop-color="white" stop-opacity="0.03"/>
<stop offset="1" stop-color="white" stop-opacity="0"/>
</radialGradient>
<radialGradient id="paint2_radial_1_444" cx="0" cy="0" r="1" gradientUnits="userSpaceOnUse" gradientTransform="translate(77.1575 21.2971) rotate(53.8543) scale(6.47972 9.46797)">
<stop stop-color="white"/>
<stop offset="0.1" stop-color="white" stop-opacity="0.85"/>
<stop offset="0.29" stop-color="white" stop-opacity="0.59"/>
<stop offset="0.47" stop-color="white" stop-opacity="0.38"/>
<stop offset="0.63" stop-color="white" stop-opacity="0.22"/>
<stop offset="0.78" stop-color="white" stop-opacity="0.1"/>
<stop offset="0.91" stop-color="white" stop-opacity="0.03"/>
<stop offset="1" stop-color="white" stop-opacity="0"/>
</radialGradient>
<radialGradient id="paint3_radial_1_444" cx="0" cy="0" r="1" gradientUnits="userSpaceOnUse" gradientTransform="translate(86.5244 43.3112) rotate(-147.061) scale(4.01845 10.9111)">
<stop stop-color="white"/>
<stop offset="0.1" stop-color="white" stop-opacity="0.85"/>
<stop offset="0.29" stop-color="white" stop-opacity="0.59"/>
<stop offset="0.47" stop-color="white" stop-opacity="0.38"/>
<stop offset="0.63" stop-color="white" stop-opacity="0.22"/>
<stop offset="0.78" stop-color="white" stop-opacity="0.1"/>
<stop offset="0.91" stop-color="white" stop-opacity="0.03"/>
<stop offset="1" stop-color="white" stop-opacity="0"/>
</radialGradient>
<radialGradient id="paint4_radial_1_444" cx="0" cy="0" r="1" gradientUnits="userSpaceOnUse" gradientTransform="translate(18.5601 23.35) rotate(180) scale(70.49 70.49)">
<stop stop-color="white"/>
<stop offset="0.2" stop-color="#D9F7FF"/>
<stop offset="1" stop-color="#89C0F5"/>
</radialGradient>
<radialGradient id="paint5_radial_1_444" cx="0" cy="0" r="1" gradientUnits="userSpaceOnUse" gradientTransform="translate(16.245 24.5843) rotate(53.8543) scale(11.7774 17.2088)">
<stop stop-color="white"/>
<stop offset="0.1" stop-color="white" stop-opacity="0.85"/>
<stop offset="0.29" stop-color="white" stop-opacity="0.59"/>
<stop offset="0.47" stop-color="white" stop-opacity="0.38"/>
<stop offset="0.63" stop-color="white" stop-opacity="0.22"/>
<stop offset="0.78" stop-color="white" stop-opacity="0.1"/>
<stop offset="0.91" stop-color="white" stop-opacity="0.03"/>
<stop offset="1" stop-color="white" stop-opacity="0"/>
</radialGradient>
<radialGradient id="paint6_radial_1_444" cx="0" cy="0" r="1" gradientUnits="userSpaceOnUse" gradientTransform="translate(56.6028 36.6198) rotate(53.8543) scale(6.47971 9.46797)">
<stop stop-color="white"/>
<stop offset="0.1" stop-color="white" stop-opacity="0.85"/>
<stop offset="0.29" stop-color="white" stop-opacity="0.59"/>
<stop offset="0.47" stop-color="white" stop-opacity="0.38"/>
<stop offset="0.63" stop-color="white" stop-opacity="0.22"/>
<stop offset="0.78" stop-color="white" stop-opacity="0.1"/>
<stop offset="0.91" stop-color="white" stop-opacity="0.03"/>
<stop offset="1" stop-color="white" stop-opacity="0"/>
</radialGradient>
<radialGradient id="paint7_radial_1_444" cx="0" cy="0" r="1" gradientUnits="userSpaceOnUse" gradientTransform="translate(65.8901 58.5926) rotate(-147.061) scale(4.01845 10.9111)">
<stop stop-color="white"/>
<stop offset="0.1" stop-color="white" stop-opacity="0.85"/>
<stop offset="0.29" stop-color="white" stop-opacity="0.59"/>
<stop offset="0.47" stop-color="white" stop-opacity="0.38"/>
<stop offset="0.63" stop-color="white" stop-opacity="0.22"/>
<stop offset="0.78" stop-color="white" stop-opacity="0.1"/>
<stop offset="0.91" stop-color="white" stop-opacity="0.03"/>
<stop offset="1" stop-color="white" stop-opacity="0"/>
</radialGradient>
<radialGradient id="paint8_radial_1_444" cx="0" cy="0" r="1" gradientUnits="userSpaceOnUse" gradientTransform="translate(22.681 86.0083) rotate(30) scale(9.88999 9.89)">
<stop stop-color="#D4F6FF"/>
<stop offset="0.2" stop-color="#D9F7FF"/>
<stop offset="1" stop-color="#89C0F5"/>
</radialGradient>
<radialGradient id="paint9_radial_1_444" cx="0" cy="0" r="1" gradientUnits="userSpaceOnUse" gradientTransform="translate(35.7025 92.3565) rotate(155.956) scale(2.20645 3.23389)">
<stop stop-color="white"/>
<stop offset="0.1" stop-color="white" stop-opacity="0.85"/>
<stop offset="0.29" stop-color="white" stop-opacity="0.59"/>
<stop offset="0.47" stop-color="white" stop-opacity="0.38"/>
<stop offset="0.63" stop-color="white" stop-opacity="0.22"/>
<stop offset="0.78" stop-color="white" stop-opacity="0.1"/>
<stop offset="0.91" stop-color="white" stop-opacity="0.03"/>
<stop offset="1" stop-color="white" stop-opacity="0"/>
</radialGradient>
<radialGradient id="paint10_radial_1_444" cx="0" cy="0" r="1" gradientUnits="userSpaceOnUse" gradientTransform="translate(39.8675 86.0005) rotate(30) scale(9.88999 9.89)">
<stop stop-color="#D4F6FF"/>
<stop offset="0.2" stop-color="#D9F7FF"/>
<stop offset="1" stop-color="#89C0F5"/>
</radialGradient>
<radialGradient id="paint11_radial_1_444" cx="0" cy="0" r="1" gradientUnits="userSpaceOnUse" gradientTransform="translate(52.8735 92.3719) rotate(155.956) scale(2.20646 3.23389)">
<stop stop-color="white"/>
<stop offset="0.1" stop-color="white" stop-opacity="0.85"/>
<stop offset="0.29" stop-color="white" stop-opacity="0.59"/>
<stop offset="0.47" stop-color="white" stop-opacity="0.38"/>
<stop offset="0.63" stop-color="white" stop-opacity="0.22"/>
<stop offset="0.78" stop-color="white" stop-opacity="0.1"/>
<stop offset="0.91" stop-color="white" stop-opacity="0.03"/>
<stop offset="1" stop-color="white" stop-opacity="0"/>
</radialGradient>
<radialGradient id="paint12_radial_1_444" cx="0" cy="0" r="1" gradientUnits="userSpaceOnUse" gradientTransform="translate(57.0576 86.0063) rotate(30) scale(9.89 9.89)">
<stop stop-color="#D4F6FF"/>
<stop offset="0.2" stop-color="#D9F7FF"/>
<stop offset="1" stop-color="#89C0F5"/>
</radialGradient>
<radialGradient id="paint13_radial_1_444" cx="0" cy="0" r="1" gradientUnits="userSpaceOnUse" gradientTransform="translate(70.0371 92.3678) rotate(155.956) scale(2.20645 3.23389)">
<stop stop-color="white"/>
<stop offset="0.1" stop-color="white" stop-opacity="0.85"/>
<stop offset="0.29" stop-color="white" stop-opacity="0.59"/>
<stop offset="0.47" stop-color="white" stop-opacity="0.38"/>
<stop offset="0.63" stop-color="white" stop-opacity="0.22"/>
<stop offset="0.78" stop-color="white" stop-opacity="0.1"/>
<stop offset="0.91" stop-color="white" stop-opacity="0.03"/>
<stop offset="1" stop-color="white" stop-opacity="0"/>
</radialGradient>
</defs>
</svg>
