<svg width="104" height="73" viewBox="0 0 104 73" fill="none" xmlns="http://www.w3.org/2000/svg">
<path d="M49.73 0.289993C56.0972 0.29065 62.2793 2.43167 67.2831 6.36905C72.2868 10.3064 75.8218 15.8116 77.32 22C79.819 20.7958 82.5572 20.1703 85.3312 20.17C88.1052 20.1697 90.8437 20.7945 93.343 21.9982C95.8422 23.2018 98.0381 24.9532 99.7674 27.1222C101.497 29.2912 102.715 31.8221 103.332 34.5267C103.948 37.2313 103.947 40.0401 103.329 42.7443C102.711 45.4485 101.491 47.9787 99.7604 50.1466C98.0298 52.3146 95.8328 54.0646 93.3328 55.2667C90.8328 56.4688 88.094 57.092 85.32 57.09H49.73C46.0018 57.09 42.31 56.3557 38.8656 54.9289C35.4212 53.5022 32.2915 51.411 29.6552 48.7748C27.019 46.1385 24.9278 43.0088 23.501 39.5644C22.0743 36.1199 21.34 32.4282 21.34 28.7C21.34 24.9718 22.0743 21.28 23.501 17.8356C24.9278 14.3912 27.019 11.2615 29.6552 8.62523C32.2915 5.98897 35.4212 3.89779 38.8656 2.47105C42.31 1.04432 46.0018 0.309994 49.73 0.309994V0.289993Z" fill="url(#paint0_radial_1_446)"/>
<path style="mix-blend-mode:overlay" opacity="0.5" d="M46.1 27.41C53.49 21.41 56.38 12.29 52.54 7.01999C48.7 1.74999 39.61 2.33999 32.21 8.32999C24.81 14.32 21.94 23.46 25.77 28.73C29.6 34 38.7 33.41 46.1 27.41Z" fill="url(#paint1_radial_1_446)"/>
<path style="mix-blend-mode:overlay" opacity="0.3" d="M83.2899 35.2C87.3599 31.91 88.9399 26.89 86.8399 23.99C84.7399 21.09 79.7299 21.42 75.6599 24.71C71.5899 28 69.9999 33 72.1199 35.92C74.2399 38.84 79.2299 38.5 83.2899 35.2Z" fill="url(#paint2_radial_1_446)"/>
<path style="mix-blend-mode:overlay" opacity="0.2" d="M92.31 42.38C96.78 37.86 101.39 36.1 102.62 38.43C103.85 40.76 101.22 46.33 96.75 50.85C92.28 55.37 87.66 57.14 86.44 54.85C85.22 52.56 87.84 46.9 92.31 42.38Z" fill="url(#paint3_radial_1_446)"/>
<path d="M29.2101 15.63C35.5746 15.6306 41.7543 17.7705 46.7562 21.7061C51.7581 25.6416 55.292 31.1442 56.7901 37.33C59.2892 36.1219 62.0287 35.493 64.8045 35.49C67.5803 35.4871 70.3211 36.1102 72.8228 37.313C75.3246 38.5157 77.5228 40.2672 79.2541 42.4371C80.9853 44.6069 82.2049 47.1392 82.8221 49.8456C83.4392 52.552 83.4381 55.3627 82.8188 58.0685C82.1995 60.7744 80.978 63.3058 79.2451 65.4743C77.5121 67.6428 75.3125 69.3925 72.8098 70.5933C70.3071 71.7942 67.5659 72.4151 64.7901 72.41H29.2101C21.6806 72.41 14.4594 69.4189 9.13528 64.0948C3.81113 58.7706 0.820068 51.5495 0.820068 44.02C0.820068 36.4905 3.81113 29.2694 9.13528 23.9452C14.4594 18.6211 21.6806 15.63 29.2101 15.63Z" fill="url(#paint4_radial_1_446)"/>
<path style="mix-blend-mode:overlay" d="M25.57 42.76C32.96 36.76 35.85 27.63 32.02 22.37C28.19 17.11 19.08 17.69 11.69 23.68C4.30004 29.67 1.41002 38.81 5.24002 44.08C9.07002 49.35 18.18 48.76 25.57 42.76Z" fill="url(#paint5_radial_1_446)"/>
<path style="mix-blend-mode:overlay" opacity="0.4" d="M62.7699 50.55C66.8299 47.26 68.4199 42.24 66.3099 39.34C64.1999 36.44 59.2 36.77 55.14 40.06C51.08 43.35 49.49 48.38 51.6 51.27C53.71 54.16 58.7099 53.85 62.7699 50.55Z" fill="url(#paint6_radial_1_446)"/>
<path style="mix-blend-mode:overlay" opacity="0.2" d="M71.78 57.73C76.25 53.21 80.86 51.45 82.09 53.73C83.32 56.01 80.69 61.63 76.22 66.15C71.75 70.67 67.14 72.44 65.91 70.15C64.68 67.86 67.31 62.25 71.78 57.73Z" fill="url(#paint7_radial_1_446)"/>
<defs>
<radialGradient id="paint0_radial_1_446" cx="0" cy="0" r="1" gradientUnits="userSpaceOnUse" gradientTransform="translate(39.09 8.07999) rotate(180) scale(70.49 70.49)">
<stop stop-color="#BAD0D6"/>
<stop offset="0.2" stop-color="#9BBAC2"/>
<stop offset="1" stop-color="#5D8BB8"/>
</radialGradient>
<radialGradient id="paint1_radial_1_446" cx="0" cy="0" r="1" gradientUnits="userSpaceOnUse" gradientTransform="translate(36.7842 9.62839) rotate(53.8543) scale(11.7774 17.2088)">
<stop stop-color="white"/>
<stop offset="0.1" stop-color="white" stop-opacity="0.85"/>
<stop offset="0.29" stop-color="white" stop-opacity="0.59"/>
<stop offset="0.47" stop-color="white" stop-opacity="0.38"/>
<stop offset="0.63" stop-color="white" stop-opacity="0.22"/>
<stop offset="0.78" stop-color="white" stop-opacity="0.1"/>
<stop offset="0.91" stop-color="white" stop-opacity="0.03"/>
<stop offset="1" stop-color="white" stop-opacity="0"/>
</radialGradient>
<radialGradient id="paint2_radial_1_446" cx="0" cy="0" r="1" gradientUnits="userSpaceOnUse" gradientTransform="translate(77.1419 21.6639) rotate(53.8543) scale(6.47972 9.46797)">
<stop stop-color="white"/>
<stop offset="0.1" stop-color="white" stop-opacity="0.85"/>
<stop offset="0.29" stop-color="white" stop-opacity="0.59"/>
<stop offset="0.47" stop-color="white" stop-opacity="0.38"/>
<stop offset="0.63" stop-color="white" stop-opacity="0.22"/>
<stop offset="0.78" stop-color="white" stop-opacity="0.1"/>
<stop offset="0.91" stop-color="white" stop-opacity="0.03"/>
<stop offset="1" stop-color="white" stop-opacity="0"/>
</radialGradient>
<radialGradient id="paint3_radial_1_446" cx="0" cy="0" r="1" gradientUnits="userSpaceOnUse" gradientTransform="translate(86.5329 43.5106) rotate(-147.061) scale(4.01845 10.9111)">
<stop stop-color="white"/>
<stop offset="0.1" stop-color="white" stop-opacity="0.85"/>
<stop offset="0.29" stop-color="white" stop-opacity="0.59"/>
<stop offset="0.47" stop-color="white" stop-opacity="0.38"/>
<stop offset="0.63" stop-color="white" stop-opacity="0.22"/>
<stop offset="0.78" stop-color="white" stop-opacity="0.1"/>
<stop offset="0.91" stop-color="white" stop-opacity="0.03"/>
<stop offset="1" stop-color="white" stop-opacity="0"/>
</radialGradient>
<radialGradient id="paint4_radial_1_446" cx="0" cy="0" r="1" gradientUnits="userSpaceOnUse" gradientTransform="translate(18.5601 23.43) rotate(180) scale(70.49 70.49)">
<stop stop-color="white"/>
<stop offset="0.2" stop-color="#D9F7FF"/>
<stop offset="1" stop-color="#89C0F5"/>
</radialGradient>
<radialGradient id="paint5_radial_1_446" cx="0" cy="0" r="1" gradientUnits="userSpaceOnUse" gradientTransform="translate(16.2456 24.938) rotate(53.8543) scale(11.7774 17.2088)">
<stop stop-color="white"/>
<stop offset="0.1" stop-color="white" stop-opacity="0.85"/>
<stop offset="0.29" stop-color="white" stop-opacity="0.59"/>
<stop offset="0.47" stop-color="white" stop-opacity="0.38"/>
<stop offset="0.63" stop-color="white" stop-opacity="0.22"/>
<stop offset="0.78" stop-color="white" stop-opacity="0.1"/>
<stop offset="0.91" stop-color="white" stop-opacity="0.03"/>
<stop offset="1" stop-color="white" stop-opacity="0"/>
</radialGradient>
<radialGradient id="paint6_radial_1_446" cx="0" cy="0" r="1" gradientUnits="userSpaceOnUse" gradientTransform="translate(56.6034 36.9735) rotate(53.8543) scale(6.47972 9.46797)">
<stop stop-color="white"/>
<stop offset="0.1" stop-color="white" stop-opacity="0.85"/>
<stop offset="0.29" stop-color="white" stop-opacity="0.59"/>
<stop offset="0.47" stop-color="white" stop-opacity="0.38"/>
<stop offset="0.63" stop-color="white" stop-opacity="0.22"/>
<stop offset="0.78" stop-color="white" stop-opacity="0.1"/>
<stop offset="0.91" stop-color="white" stop-opacity="0.03"/>
<stop offset="1" stop-color="white" stop-opacity="0"/>
</radialGradient>
<radialGradient id="paint7_radial_1_446" cx="0" cy="0" r="1" gradientUnits="userSpaceOnUse" gradientTransform="translate(65.9057 58.7966) rotate(-147.061) scale(4.01845 10.9111)">
<stop stop-color="white"/>
<stop offset="0.1" stop-color="white" stop-opacity="0.85"/>
<stop offset="0.29" stop-color="white" stop-opacity="0.59"/>
<stop offset="0.47" stop-color="white" stop-opacity="0.38"/>
<stop offset="0.63" stop-color="white" stop-opacity="0.22"/>
<stop offset="0.78" stop-color="white" stop-opacity="0.1"/>
<stop offset="0.91" stop-color="white" stop-opacity="0.03"/>
<stop offset="1" stop-color="white" stop-opacity="0"/>
</radialGradient>
</defs>
</svg>
