<svg width="97" height="67" viewBox="0 0 97 67" fill="none" xmlns="http://www.w3.org/2000/svg">
<path d="M33.87 0.88C41.2095 0.882511 48.3359 3.34731 54.1086 7.87987C59.8813 12.4124 63.9664 18.7507 65.71 25.88C68.5924 24.4998 71.7483 23.7856 74.944 23.7902C78.1398 23.7948 81.2936 24.5181 84.172 25.9066C87.0503 27.295 89.5795 29.3131 91.5724 31.8114C93.5653 34.3096 94.9707 37.2241 95.6847 40.3391C96.3987 43.4541 96.4029 46.6898 95.6971 49.8066C94.9913 52.9235 93.5936 55.8416 91.6073 58.3451C89.621 60.8486 87.0971 62.8734 84.2224 64.2694C81.3477 65.6654 78.1958 66.397 75 66.41H33.9C29.5491 66.486 25.2266 65.6947 21.1848 64.0822C17.143 62.4698 13.4628 60.0684 10.359 57.0184C7.25521 53.9683 4.78997 50.3307 3.10715 46.3176C1.42432 42.3046 0.557617 37.9966 0.557617 33.645C0.557617 29.2934 1.42432 24.9854 3.10715 20.9724C4.78997 16.9593 7.25521 13.3216 10.359 10.2716C13.4628 7.22156 17.143 4.82023 21.1848 3.20777C25.2266 1.5953 29.5491 0.803986 33.9 0.88H33.87Z" fill="url(#paint0_radial_1_449)"/>
<path style="mix-blend-mode:overlay" d="M29.67 32.19C38.2 25.27 41.53 14.73 37.11 8.64999C32.69 2.56999 22.18 3.24998 13.65 10.17C5.11996 17.09 1.78997 27.63 6.20997 33.71C10.63 39.79 21.14 39.11 29.67 32.19Z" fill="url(#paint1_radial_1_449)"/>
<path style="mix-blend-mode:overlay" opacity="0.4" d="M72.6 41.18C77.29 37.38 79.12 31.59 76.69 28.24C74.26 24.89 68.49 25.24 63.79 29.08C59.09 32.92 57.28 38.68 59.71 42.02C62.14 45.36 67.91 45 72.6 41.18Z" fill="url(#paint2_radial_1_449)"/>
<path style="mix-blend-mode:overlay" opacity="0.2" d="M83.0001 49.47C88.1501 44.25 93.4801 42.21 94.9001 44.91C96.3201 47.61 93.2801 54.02 88.1201 59.24C82.9601 64.46 77.6401 66.5 76.2201 63.8C74.8001 61.1 77.8501 54.69 83.0001 49.47Z" fill="url(#paint3_radial_1_449)"/>
<defs>
<radialGradient id="paint0_radial_1_449" cx="0" cy="0" r="1" gradientUnits="userSpaceOnUse" gradientTransform="translate(21.59 9.88) rotate(180) scale(81.35 81.35)">
<stop stop-color="white"/>
<stop offset="0.2" stop-color="#D9F7FF"/>
<stop offset="1" stop-color="#89C0F5"/>
</radialGradient>
<radialGradient id="paint1_radial_1_449" cx="0" cy="0" r="1" gradientUnits="userSpaceOnUse" gradientTransform="translate(19.1638 12.9888) rotate(53.8543) scale(13.6003 19.8723)">
<stop stop-color="white"/>
<stop offset="0.1" stop-color="white" stop-opacity="0.85"/>
<stop offset="0.29" stop-color="white" stop-opacity="0.59"/>
<stop offset="0.47" stop-color="white" stop-opacity="0.38"/>
<stop offset="0.63" stop-color="white" stop-opacity="0.22"/>
<stop offset="0.78" stop-color="white" stop-opacity="0.1"/>
<stop offset="0.91" stop-color="white" stop-opacity="0.03"/>
<stop offset="1" stop-color="white" stop-opacity="0"/>
</radialGradient>
<radialGradient id="paint2_radial_1_449" cx="0" cy="0" r="1" gradientUnits="userSpaceOnUse" gradientTransform="translate(65.7418 26.8724) rotate(53.8543) scale(7.4766 10.9246)">
<stop stop-color="white"/>
<stop offset="0.1" stop-color="white" stop-opacity="0.85"/>
<stop offset="0.29" stop-color="white" stop-opacity="0.59"/>
<stop offset="0.47" stop-color="white" stop-opacity="0.38"/>
<stop offset="0.63" stop-color="white" stop-opacity="0.22"/>
<stop offset="0.78" stop-color="white" stop-opacity="0.1"/>
<stop offset="0.91" stop-color="white" stop-opacity="0.03"/>
<stop offset="1" stop-color="white" stop-opacity="0"/>
</radialGradient>
<radialGradient id="paint3_radial_1_449" cx="0" cy="0" r="1" gradientUnits="userSpaceOnUse" gradientTransform="translate(76.8645 50.9267) rotate(-147.061) scale(4.64449 12.6109)">
<stop stop-color="white"/>
<stop offset="0.1" stop-color="white" stop-opacity="0.85"/>
<stop offset="0.29" stop-color="white" stop-opacity="0.59"/>
<stop offset="0.47" stop-color="white" stop-opacity="0.38"/>
<stop offset="0.63" stop-color="white" stop-opacity="0.22"/>
<stop offset="0.78" stop-color="white" stop-opacity="0.1"/>
<stop offset="0.91" stop-color="white" stop-opacity="0.03"/>
<stop offset="1" stop-color="white" stop-opacity="0"/>
</radialGradient>
</defs>
</svg>
