<svg width="85" height="94" viewBox="0 0 85 94" fill="none" xmlns="http://www.w3.org/2000/svg">
<path d="M14.49 38.28C14.488 42.9441 15.8693 47.504 18.4591 51.3831C21.0489 55.2621 24.7309 58.286 29.0394 60.0722C33.3479 61.8585 38.0893 62.3268 42.6641 61.4181C47.2388 60.5094 51.4413 58.2644 54.74 54.9671C58.0387 51.6698 60.2855 47.4683 61.1962 42.8939C62.1068 38.3196 61.6405 33.5779 59.856 29.2686C58.0716 24.9594 55.0493 21.2761 51.1714 18.6846C47.2934 16.0932 42.7341 14.71 38.07 14.71C34.9739 14.7087 31.9079 15.3174 29.0471 16.5013C26.1863 17.6852 23.5868 19.4211 21.397 21.61C19.2073 23.7988 17.4702 26.3975 16.2851 29.2578C15.1 32.1181 14.49 35.1839 14.49 38.28Z" fill="url(#paint0_radial_1_439)"/>
<path style="mix-blend-mode:overlay" d="M41.6601 35.86C35.6601 30.99 33.3101 23.57 36.4201 19.29C39.5301 15.01 46.9301 15.49 52.9401 20.36C58.9501 25.23 61.2901 32.65 58.1701 36.93C55.0501 41.21 47.6601 40.73 41.6601 35.86Z" fill="url(#paint1_radial_1_439)"/>
<path style="mix-blend-mode:overlay" opacity="0.4" d="M17.2299 43.5C18.0199 40.89 22.0699 41.97 26.2299 45.91C30.3899 49.85 33.23 55.16 32.39 57.77C31.55 60.38 27.56 59.3 23.39 55.36C19.22 51.42 16.4299 46.1 17.2299 43.5Z" fill="url(#paint2_radial_1_439)"/>
<path d="M40.93 7.73001C40.9313 8.10643 40.8583 8.4794 40.7152 8.82755C40.572 9.17569 40.3615 9.49215 40.0958 9.75879C39.8301 10.0254 39.5144 10.237 39.1668 10.3813C38.8191 10.5257 38.4464 10.6 38.07 10.6C37.6936 10.6 37.3208 10.5257 36.9732 10.3813C36.6255 10.237 36.3098 10.0254 36.0441 9.75879C35.7784 9.49215 35.5679 9.17569 35.4248 8.82755C35.2817 8.4794 35.2087 8.10643 35.21 7.73001V3.67999C35.21 2.92147 35.5113 2.19404 36.0476 1.65768C36.584 1.12133 37.3115 0.820007 38.07 0.820007C38.8285 0.820007 39.5559 1.12133 40.0923 1.65768C40.6287 2.19404 40.93 2.92147 40.93 3.67999V7.73001Z" fill="url(#paint3_radial_1_439)"/>
<path d="M18.49 14.66C19.0082 15.1969 19.2977 15.9139 19.2977 16.66C19.2977 17.4061 19.0082 18.1231 18.49 18.66C17.9509 19.1931 17.2232 19.4921 16.465 19.4921C15.7068 19.4921 14.9792 19.1931 14.44 18.66L11.57 15.79C11.0519 15.2531 10.7623 14.5361 10.7623 13.79C10.7623 13.0439 11.0519 12.3269 11.57 11.79C11.8357 11.5236 12.1513 11.3123 12.4988 11.1681C12.8463 11.0239 13.2188 10.9496 13.595 10.9496C13.9712 10.9496 14.3438 11.0239 14.6913 11.1681C15.0387 11.3123 15.3544 11.5236 15.62 11.79L18.49 14.66Z" fill="url(#paint4_radial_1_439)"/>
<path d="M7.51997 35.43C8.27849 35.43 9.00594 35.7313 9.5423 36.2677C10.0787 36.804 10.38 37.5315 10.38 38.29C10.38 39.0485 10.0787 39.776 9.5423 40.3123C9.00594 40.8487 8.27849 41.15 7.51997 41.15H3.45998C2.70146 41.15 1.97399 40.8487 1.43764 40.3123C0.901283 39.776 0.599976 39.0485 0.599976 38.29C0.599976 37.5315 0.901283 36.804 1.43764 36.2677C1.97399 35.7313 2.70146 35.43 3.45998 35.43H7.51997Z" fill="url(#paint5_radial_1_439)"/>
<path d="M14.44 57.87C14.7057 57.6036 15.0213 57.3923 15.3688 57.2481C15.7162 57.1039 16.0888 57.0296 16.465 57.0296C16.8412 57.0296 17.2137 57.1039 17.5612 57.2481C17.9087 57.3923 18.2243 57.6036 18.49 57.87C19.0152 58.4032 19.3096 59.1216 19.3096 59.87C19.3096 60.6184 19.0152 61.3368 18.49 61.87L15.62 64.74C15.3543 65.0064 15.0387 65.2177 14.6912 65.3619C14.3437 65.5061 13.9712 65.5804 13.595 65.5804C13.2188 65.5804 12.8462 65.5061 12.4988 65.3619C12.1513 65.2177 11.8357 65.0064 11.57 64.74C11.0472 64.2056 10.7544 63.4876 10.7544 62.74C10.7544 61.9923 11.0472 61.2744 11.57 60.74L14.44 57.87Z" fill="url(#paint6_radial_1_439)"/>
<path d="M35.21 68.84C35.21 68.4644 35.2839 68.0925 35.4277 67.7455C35.5714 67.3985 35.7821 67.0833 36.0476 66.8177C36.3132 66.5521 36.6285 66.3414 36.9755 66.1977C37.3225 66.054 37.6944 65.98 38.07 65.98C38.8285 65.98 39.5559 66.2813 40.0923 66.8177C40.6287 67.354 40.93 68.0815 40.93 68.84V72.89C40.93 73.6495 40.629 74.3779 40.0929 74.9159C39.5568 75.4538 38.8294 75.7574 38.07 75.76C37.6936 75.76 37.3208 75.6857 36.9732 75.5414C36.6255 75.397 36.3098 75.1854 36.0441 74.9188C35.7784 74.6522 35.5679 74.3357 35.4248 73.9875C35.2817 73.6394 35.2087 73.2664 35.21 72.89V68.84Z" fill="url(#paint7_radial_1_439)"/>
<path d="M57.6499 61.91C57.1247 61.3768 56.8303 60.6584 56.8303 59.91C56.8303 59.1616 57.1247 58.4432 57.6499 57.91C58.1831 57.3848 58.9015 57.0904 59.6499 57.0904C60.3984 57.0904 61.1167 57.3848 61.6499 57.91L64.5199 60.77C65.0428 61.3044 65.3355 62.0223 65.3355 62.77C65.3355 63.5176 65.0428 64.2356 64.5199 64.77C63.9867 65.2952 63.2684 65.5896 62.5199 65.5896C61.7715 65.5896 61.0531 65.2952 60.5199 64.77L57.6499 61.91Z" fill="url(#paint8_radial_1_439)"/>
<path d="M68.62 41.14C68.2449 41.1413 67.8732 41.0686 67.5263 40.9259C67.1794 40.7833 66.864 40.5736 66.5983 40.3088C66.3326 40.044 66.1218 39.7294 65.9779 39.383C65.8341 39.0365 65.76 38.6651 65.76 38.29C65.7587 37.914 65.8318 37.5415 65.975 37.194C66.1183 36.8464 66.3289 36.5306 66.5947 36.2647C66.8606 35.9989 67.1764 35.7883 67.524 35.645C67.8716 35.5017 68.2441 35.4287 68.62 35.43H72.68C73.4368 35.43 74.1627 35.7299 74.6988 36.2641C75.2349 36.7983 75.5374 37.5232 75.54 38.28C75.5413 38.6559 75.4683 39.0284 75.325 39.376C75.1817 39.7236 74.9711 40.0394 74.7053 40.3053C74.4394 40.5711 74.1236 40.7817 73.776 40.925C73.4285 41.0682 73.056 41.1413 72.68 41.14H68.62Z" fill="url(#paint9_radial_1_439)"/>
<path d="M61.69 18.7C61.1568 19.2252 60.4384 19.5196 59.69 19.5196C58.9415 19.5196 58.2232 19.2252 57.69 18.7C57.1648 18.1668 56.8704 17.4484 56.8704 16.7C56.8704 15.9516 57.1648 15.2332 57.69 14.7L60.56 11.83C61.0932 11.3048 61.8115 11.0104 62.56 11.0104C63.3084 11.0104 64.0268 11.3048 64.56 11.83C65.0828 12.3644 65.3755 13.0823 65.3755 13.83C65.3755 14.5776 65.0828 15.2956 64.56 15.83L61.69 18.7Z" fill="url(#paint10_radial_1_439)"/>
<path d="M17.44 43.12C21.0984 43.1216 24.6502 44.3516 27.5261 46.6128C30.402 48.874 32.4353 52.0353 33.3 55.59C34.7358 54.8988 36.3089 54.5399 37.9025 54.54C39.496 54.5401 41.0691 54.8991 42.5048 55.5904C43.9406 56.2817 45.2022 57.2875 46.196 58.5332C47.1898 59.7789 47.8902 61.2325 48.2453 62.786C48.6003 64.3395 48.6009 65.953 48.247 67.5067C47.893 69.0604 47.1936 70.5145 46.2007 71.7609C45.2078 73.0073 43.9469 74.014 42.5116 74.7063C41.0763 75.3987 39.5035 75.7588 37.91 75.76H17.44C13.1117 75.76 8.96062 74.0406 5.90002 70.98C2.83943 67.9194 1.12 63.7683 1.12 59.44C1.12 55.1117 2.83943 50.9606 5.90002 47.9C8.96062 44.8394 13.1117 43.12 17.44 43.12Z" fill="url(#paint11_radial_1_439)"/>
<path d="M17.44 43.12C21.0984 43.1216 24.6502 44.3516 27.5261 46.6128C30.402 48.874 32.4353 52.0353 33.3 55.59C34.7358 54.8988 36.3089 54.5399 37.9025 54.54C39.496 54.5401 41.0691 54.8991 42.5048 55.5904C43.9406 56.2817 45.2022 57.2875 46.196 58.5332C47.1898 59.7789 47.8902 61.2325 48.2453 62.786C48.6003 64.3395 48.6009 65.953 48.247 67.5067C47.893 69.0604 47.1936 70.5145 46.2007 71.7609C45.2078 73.0073 43.9469 74.014 42.5116 74.7063C41.0763 75.3987 39.5035 75.7588 37.91 75.76H17.44C13.1117 75.76 8.96062 74.0406 5.90002 70.98C2.83943 67.9194 1.12 63.7683 1.12 59.44C1.12 55.1117 2.83943 50.9606 5.90002 47.9C8.96062 44.8394 13.1117 43.12 17.44 43.12Z" fill="url(#paint12_radial_1_439)"/>
<path style="mix-blend-mode:overlay" d="M15.3501 58.71C19.6001 55.27 21.2601 50.02 19.0601 46.99C16.8601 43.96 11.62 44.3 7.37005 47.75C3.12005 51.2 1.47005 56.44 3.67005 59.47C5.87005 62.5 11.1001 62.16 15.3501 58.71Z" fill="url(#paint13_radial_1_439)"/>
<path style="mix-blend-mode:overlay" opacity="0.4" d="M36.73 63.19C39.06 61.3 39.98 58.41 38.73 56.75C37.48 55.09 34.64 55.27 32.3 57.16C29.96 59.05 29.06 61.94 30.3 63.61C31.54 65.28 34.4 65.08 36.73 63.19Z" fill="url(#paint14_radial_1_439)"/>
<path style="mix-blend-mode:overlay" opacity="0.2" d="M41.91 67.32C44.48 64.72 47.1299 63.7 47.8399 65.05C48.5499 66.4 47.03 69.59 44.46 72.19C41.89 74.79 39.2399 75.8 38.5399 74.45C37.8399 73.1 39.34 69.92 41.91 67.32Z" fill="url(#paint15_radial_1_439)"/>
<path d="M71.85 24.33C68.9491 24.3294 66.1322 25.3044 63.8524 27.0982C61.5725 28.892 59.9621 31.4004 59.28 34.22C58.1405 33.6689 56.8914 33.3818 55.6256 33.38C54.3598 33.3783 53.1099 33.6619 51.9689 34.2099C50.8278 34.7579 49.825 35.5561 49.0351 36.5451C48.2451 37.5341 47.6882 38.6885 47.406 39.9224C47.1237 41.1563 47.1233 42.438 47.4047 43.6721C47.6862 44.9063 48.2422 46.061 49.0316 47.0506C49.8209 48.0401 50.8232 48.839 51.9638 49.3877C53.1045 49.9364 54.3542 50.2209 55.62 50.22H71.85C75.2819 50.22 78.5733 48.8567 81 46.43C83.4267 44.0032 84.79 40.7119 84.79 37.28C84.79 33.8481 83.4267 30.5568 81 28.13C78.5733 25.7033 75.2819 24.34 71.85 24.34V24.33Z" fill="url(#paint16_radial_1_439)"/>
<path d="M71.85 24.33C68.9491 24.3294 66.1322 25.3044 63.8524 27.0982C61.5725 28.892 59.9621 31.4004 59.28 34.22C58.1405 33.6689 56.8914 33.3818 55.6256 33.38C54.3598 33.3783 53.1099 33.6619 51.9689 34.2099C50.8278 34.7579 49.825 35.5561 49.0351 36.5451C48.2451 37.5341 47.6882 38.6885 47.406 39.9224C47.1237 41.1563 47.1233 42.438 47.4047 43.6721C47.6862 44.9063 48.2422 46.061 49.0316 47.0506C49.8209 48.0401 50.8232 48.839 51.9638 49.3877C53.1045 49.9364 54.3542 50.2209 55.62 50.22H71.85C75.2819 50.22 78.5733 48.8567 81 46.43C83.4267 44.0032 84.79 40.7119 84.79 37.28C84.79 33.8481 83.4267 30.5568 81 28.13C78.5733 25.7033 75.2819 24.34 71.85 24.34V24.33Z" fill="url(#paint17_radial_1_439)"/>
<path style="mix-blend-mode:overlay" d="M73.51 36.69C70.14 33.96 68.82 29.8 70.57 27.4C72.32 25 76.46 25.26 79.84 28C83.22 30.74 84.52 34.89 82.77 37.29C81.02 39.69 76.88 39.42 73.51 36.69Z" fill="url(#paint18_radial_1_439)"/>
<path style="mix-blend-mode:overlay" opacity="0.4" d="M56.55 40.24C54.7 38.74 53.98 36.45 54.94 35.13C55.9 33.81 58.18 33.96 60.03 35.46C61.88 36.96 62.6 39.25 61.65 40.57C60.7 41.89 58.41 41.74 56.55 40.24Z" fill="url(#paint19_radial_1_439)"/>
<path style="mix-blend-mode:overlay" opacity="0.2" d="M52.45 43.52C50.45 41.46 48.31 40.65 47.75 41.72C47.19 42.79 48.38 45.31 50.42 47.38C52.46 49.45 54.56 50.24 55.12 49.18C55.68 48.12 54.48 45.58 52.45 43.52Z" fill="url(#paint20_radial_1_439)"/>
<path d="M19.11 91.34C18.565 92.2842 17.6672 92.9732 16.6142 93.2554C15.5612 93.5376 14.4392 93.39 13.495 92.845C12.5508 92.3 11.8618 91.4022 11.5796 90.3492C11.2974 89.2962 11.445 88.1742 11.99 87.23C13.12 85.23 20.14 81.32 20.14 81.32C20.14 81.32 20.24 89.37 19.11 91.34Z" fill="url(#paint21_radial_1_439)"/>
<path style="mix-blend-mode:overlay" d="M12.11 90.65C11.47 88.99 11.86 87.24 12.97 86.74C14.08 86.24 15.51 87.19 16.15 88.86C16.79 90.53 16.4 92.28 15.28 92.77C14.16 93.26 12.75 92.32 12.11 90.65Z" fill="url(#paint22_radial_1_439)"/>
<path d="M36.4 91.34C35.855 92.2842 34.9573 92.9732 33.9042 93.2554C32.8512 93.5376 31.7292 93.39 30.7851 92.845C29.8409 92.3 29.1519 91.4022 28.8696 90.3492C28.5874 89.2962 28.735 88.1742 29.28 87.23C30.42 85.23 37.4401 81.32 37.4401 81.32C37.4401 81.32 37.54 89.37 36.4 91.34Z" fill="url(#paint23_radial_1_439)"/>
<path style="mix-blend-mode:overlay" d="M29.4 90.65C28.77 88.99 29.15 87.24 30.27 86.74C31.39 86.24 32.81 87.19 33.44 88.86C34.07 90.53 33.69 92.28 32.58 92.77C31.47 93.26 30 92.32 29.4 90.65Z" fill="url(#paint24_radial_1_439)"/>
<path d="M53.7 91.34C53.4301 91.8075 53.0708 92.2173 52.6426 92.5459C52.2143 92.8746 51.7256 93.1156 51.2042 93.2554C50.6828 93.3952 50.1389 93.4308 49.6037 93.3604C49.0685 93.29 48.5525 93.1149 48.085 92.845C47.6175 92.5751 47.2077 92.2158 46.879 91.7876C46.5504 91.3594 46.3093 90.8706 46.1696 90.3492C46.0298 89.8278 45.9941 89.284 46.0645 88.7488C46.135 88.2136 46.3101 87.6975 46.58 87.23C47.72 85.23 54.74 81.32 54.74 81.32C54.74 81.32 54.84 89.37 53.7 91.34Z" fill="url(#paint25_radial_1_439)"/>
<path style="mix-blend-mode:overlay" d="M46.7 90.65C46.06 88.99 46.45 87.24 47.57 86.74C48.69 86.24 50.1 87.19 50.74 88.86C51.38 90.53 50.99 92.28 49.88 92.77C48.77 93.26 47.34 92.32 46.7 90.65Z" fill="url(#paint26_radial_1_439)"/>
<path d="M71 91.34C70.7302 91.8075 70.3709 92.2173 69.9426 92.5459C69.5144 92.8746 69.0256 93.1156 68.5042 93.2554C67.9828 93.3952 67.439 93.4308 66.9038 93.3604C66.3686 93.29 65.8525 93.1149 65.385 92.845C64.9175 92.5751 64.5077 92.2158 64.1791 91.7876C63.8505 91.3594 63.6094 90.8706 63.4696 90.3492C63.3299 89.8278 63.2942 89.284 63.3646 88.7488C63.435 88.2136 63.6102 87.6975 63.88 87.23C65.01 85.23 72.03 81.32 72.03 81.32C72.03 81.32 72.13 89.37 71 91.34Z" fill="url(#paint27_radial_1_439)"/>
<path style="mix-blend-mode:overlay" d="M64 90.65C63.36 88.99 63.75 87.24 64.86 86.74C65.97 86.24 67.4001 87.19 68.0401 88.86C68.6801 90.53 68.2901 92.28 67.1701 92.77C66.0501 93.26 64.63 92.32 64 90.65Z" fill="url(#paint28_radial_1_439)"/>
<defs>
<radialGradient id="paint0_radial_1_439" cx="0" cy="0" r="1" gradientUnits="userSpaceOnUse" gradientTransform="translate(43.46 23.5) rotate(180) scale(44.76 44.76)">
<stop stop-color="#FFF8C7"/>
<stop offset="0.16" stop-color="#FFE436"/>
<stop offset="1" stop-color="#FE761C"/>
</radialGradient>
<radialGradient id="paint1_radial_1_439" cx="0" cy="0" r="1" gradientUnits="userSpaceOnUse" gradientTransform="translate(48.3835 18.1136) rotate(126.146) scale(9.57004 13.9835)">
<stop stop-color="white"/>
<stop offset="0.1" stop-color="white" stop-opacity="0.85"/>
<stop offset="0.29" stop-color="white" stop-opacity="0.59"/>
<stop offset="0.47" stop-color="white" stop-opacity="0.38"/>
<stop offset="0.63" stop-color="white" stop-opacity="0.22"/>
<stop offset="0.78" stop-color="white" stop-opacity="0.1"/>
<stop offset="0.91" stop-color="white" stop-opacity="0.03"/>
<stop offset="1" stop-color="white" stop-opacity="0"/>
</radialGradient>
<radialGradient id="paint2_radial_1_439" cx="0" cy="0" r="1" gradientUnits="userSpaceOnUse" gradientTransform="translate(14.7741 44.0296) rotate(-136.766) scale(10.4062 4.42291)">
<stop stop-color="white"/>
<stop offset="0.1" stop-color="white" stop-opacity="0.85"/>
<stop offset="0.29" stop-color="white" stop-opacity="0.59"/>
<stop offset="0.47" stop-color="white" stop-opacity="0.38"/>
<stop offset="0.63" stop-color="white" stop-opacity="0.22"/>
<stop offset="0.78" stop-color="white" stop-opacity="0.1"/>
<stop offset="0.91" stop-color="white" stop-opacity="0.03"/>
<stop offset="1" stop-color="white" stop-opacity="0"/>
</radialGradient>
<radialGradient id="paint3_radial_1_439" cx="0" cy="0" r="1" gradientUnits="userSpaceOnUse" gradientTransform="translate(38.59 2.26001) scale(7.78998 7.79)">
<stop stop-color="#FFF8C7"/>
<stop offset="0.16" stop-color="#FFE436"/>
<stop offset="1" stop-color="#FE761C"/>
</radialGradient>
<radialGradient id="paint4_radial_1_439" cx="0" cy="0" r="1" gradientUnits="userSpaceOnUse" gradientTransform="translate(12.9629 12.4403) rotate(-45) scale(7.78999)">
<stop stop-color="#FFF8C7"/>
<stop offset="0.16" stop-color="#FFE436"/>
<stop offset="1" stop-color="#FE761C"/>
</radialGradient>
<radialGradient id="paint5_radial_1_439" cx="0" cy="0" r="1" gradientUnits="userSpaceOnUse" gradientTransform="translate(2.04998 37.76) rotate(-90) scale(7.79 7.79)">
<stop stop-color="#FFF8C7"/>
<stop offset="0.16" stop-color="#FFE436"/>
<stop offset="1" stop-color="#FE761C"/>
</radialGradient>
<radialGradient id="paint6_radial_1_439" cx="0" cy="0" r="1" gradientUnits="userSpaceOnUse" gradientTransform="translate(12.2121 63.3858) rotate(-135) scale(7.79)">
<stop stop-color="#FFF8C7"/>
<stop offset="0.16" stop-color="#FFE436"/>
<stop offset="1" stop-color="#FE761C"/>
</radialGradient>
<radialGradient id="paint7_radial_1_439" cx="0" cy="0" r="1" gradientUnits="userSpaceOnUse" gradientTransform="translate(37.55 74.32) rotate(180) scale(7.78998 7.79)">
<stop stop-color="#FFF8C7"/>
<stop offset="0.16" stop-color="#FFE436"/>
<stop offset="1" stop-color="#FE761C"/>
</radialGradient>
<radialGradient id="paint8_radial_1_439" cx="0" cy="0" r="1" gradientUnits="userSpaceOnUse" gradientTransform="translate(63.1505 64.1295) rotate(135) scale(7.79001)">
<stop stop-color="#FFF8C7"/>
<stop offset="0.16" stop-color="#FFE436"/>
<stop offset="1" stop-color="#FE761C"/>
</radialGradient>
<radialGradient id="paint9_radial_1_439" cx="0" cy="0" r="1" gradientUnits="userSpaceOnUse" gradientTransform="translate(74.1 38.81) rotate(90) scale(7.79003 7.79)">
<stop stop-color="#FFF8C7"/>
<stop offset="0.16" stop-color="#FFE436"/>
<stop offset="1" stop-color="#FE761C"/>
</radialGradient>
<radialGradient id="paint10_radial_1_439" cx="0" cy="0" r="1" gradientUnits="userSpaceOnUse" gradientTransform="translate(63.9042 13.191) rotate(44.9999) scale(7.78998)">
<stop stop-color="#FFF8C7"/>
<stop offset="0.16" stop-color="#FFE436"/>
<stop offset="1" stop-color="#FE761C"/>
</radialGradient>
<radialGradient id="paint11_radial_1_439" cx="0" cy="0" r="1" gradientUnits="userSpaceOnUse" gradientTransform="translate(11.33 47.6) rotate(180) scale(40.51 40.51)">
<stop stop-color="white"/>
<stop offset="0.2" stop-color="#D9F7FF"/>
<stop offset="1" stop-color="#89C0F5"/>
</radialGradient>
<radialGradient id="paint12_radial_1_439" cx="0" cy="0" r="1" gradientUnits="userSpaceOnUse" gradientTransform="translate(25.82 46.13) scale(40.53 40.53)">
<stop stop-color="#FFE436"/>
<stop offset="0.08" stop-color="#FFCF31" stop-opacity="0.81"/>
<stop offset="0.18" stop-color="#FFB72B" stop-opacity="0.6"/>
<stop offset="0.28" stop-color="#FEA327" stop-opacity="0.41"/>
<stop offset="0.38" stop-color="#FE9323" stop-opacity="0.26"/>
<stop offset="0.48" stop-color="#FE8620" stop-opacity="0.15"/>
<stop offset="0.58" stop-color="#FE7D1E" stop-opacity="0.07"/>
<stop offset="0.68" stop-color="#FE781C" stop-opacity="0.02"/>
<stop offset="0.77" stop-color="#FE761C" stop-opacity="0"/>
</radialGradient>
<radialGradient id="paint13_radial_1_439" cx="0" cy="0" r="1" gradientUnits="userSpaceOnUse" gradientTransform="translate(8.86245 44.0812) rotate(53.8543) scale(6.76454 9.88415)">
<stop stop-color="white"/>
<stop offset="0.1" stop-color="white" stop-opacity="0.85"/>
<stop offset="0.29" stop-color="white" stop-opacity="0.59"/>
<stop offset="0.47" stop-color="white" stop-opacity="0.38"/>
<stop offset="0.63" stop-color="white" stop-opacity="0.22"/>
<stop offset="0.78" stop-color="white" stop-opacity="0.1"/>
<stop offset="0.91" stop-color="white" stop-opacity="0.03"/>
<stop offset="1" stop-color="white" stop-opacity="0"/>
</radialGradient>
<radialGradient id="paint14_radial_1_439" cx="0" cy="0" r="1" gradientUnits="userSpaceOnUse" gradientTransform="translate(32.077 50.9917) rotate(53.8543) scale(3.71693 5.43107)">
<stop stop-color="white"/>
<stop offset="0.1" stop-color="white" stop-opacity="0.85"/>
<stop offset="0.29" stop-color="white" stop-opacity="0.59"/>
<stop offset="0.47" stop-color="white" stop-opacity="0.38"/>
<stop offset="0.63" stop-color="white" stop-opacity="0.22"/>
<stop offset="0.78" stop-color="white" stop-opacity="0.1"/>
<stop offset="0.91" stop-color="white" stop-opacity="0.03"/>
<stop offset="1" stop-color="white" stop-opacity="0"/>
</radialGradient>
<radialGradient id="paint15_radial_1_439" cx="0" cy="0" r="1" gradientUnits="userSpaceOnUse" gradientTransform="translate(34.2528 65.8372) rotate(-147.061) scale(2.30956 6.27101)">
<stop stop-color="white"/>
<stop offset="0.1" stop-color="white" stop-opacity="0.85"/>
<stop offset="0.29" stop-color="white" stop-opacity="0.59"/>
<stop offset="0.47" stop-color="white" stop-opacity="0.38"/>
<stop offset="0.63" stop-color="white" stop-opacity="0.22"/>
<stop offset="0.78" stop-color="white" stop-opacity="0.1"/>
<stop offset="0.91" stop-color="white" stop-opacity="0.03"/>
<stop offset="1" stop-color="white" stop-opacity="0"/>
</radialGradient>
<radialGradient id="paint16_radial_1_439" cx="0" cy="0" r="1" gradientUnits="userSpaceOnUse" gradientTransform="translate(76.7 27.88) scale(32.13 32.13)">
<stop stop-color="white"/>
<stop offset="0.2" stop-color="#D9F7FF"/>
<stop offset="1" stop-color="#89C0F5"/>
</radialGradient>
<radialGradient id="paint17_radial_1_439" cx="0" cy="0" r="1" gradientUnits="userSpaceOnUse" gradientTransform="translate(48.82 34.46) scale(37.37 37.37)">
<stop stop-color="#FFE436"/>
<stop offset="0.08" stop-color="#FFCF31" stop-opacity="0.81"/>
<stop offset="0.18" stop-color="#FFB72B" stop-opacity="0.6"/>
<stop offset="0.28" stop-color="#FEA327" stop-opacity="0.41"/>
<stop offset="0.38" stop-color="#FE9323" stop-opacity="0.26"/>
<stop offset="0.48" stop-color="#FE8620" stop-opacity="0.15"/>
<stop offset="0.58" stop-color="#FE7D1E" stop-opacity="0.07"/>
<stop offset="0.68" stop-color="#FE781C" stop-opacity="0.02"/>
<stop offset="0.77" stop-color="#FE761C" stop-opacity="0"/>
</radialGradient>
<radialGradient id="paint18_radial_1_439" cx="0" cy="0" r="1" gradientUnits="userSpaceOnUse" gradientTransform="translate(76.971 21.8325) rotate(126.146) scale(5.36891 7.84489)">
<stop stop-color="white"/>
<stop offset="0.1" stop-color="white" stop-opacity="0.85"/>
<stop offset="0.29" stop-color="white" stop-opacity="0.59"/>
<stop offset="0.47" stop-color="white" stop-opacity="0.38"/>
<stop offset="0.63" stop-color="white" stop-opacity="0.22"/>
<stop offset="0.78" stop-color="white" stop-opacity="0.1"/>
<stop offset="0.91" stop-color="white" stop-opacity="0.03"/>
<stop offset="1" stop-color="white" stop-opacity="0"/>
</radialGradient>
<radialGradient id="paint19_radial_1_439" cx="0" cy="0" r="1" gradientUnits="userSpaceOnUse" gradientTransform="translate(58.5822 27.3222) rotate(126.146) scale(2.94792 4.30741)">
<stop stop-color="white"/>
<stop offset="0.1" stop-color="white" stop-opacity="0.85"/>
<stop offset="0.29" stop-color="white" stop-opacity="0.59"/>
<stop offset="0.47" stop-color="white" stop-opacity="0.38"/>
<stop offset="0.63" stop-color="white" stop-opacity="0.22"/>
<stop offset="0.78" stop-color="white" stop-opacity="0.1"/>
<stop offset="0.91" stop-color="white" stop-opacity="0.03"/>
<stop offset="1" stop-color="white" stop-opacity="0"/>
</radialGradient>
<radialGradient id="paint20_radial_1_439" cx="0" cy="0" r="1" gradientUnits="userSpaceOnUse" gradientTransform="translate(47.7702 46.8465) rotate(-32.9387) scale(1.8358 4.98464)">
<stop stop-color="white"/>
<stop offset="0.1" stop-color="white" stop-opacity="0.85"/>
<stop offset="0.29" stop-color="white" stop-opacity="0.59"/>
<stop offset="0.47" stop-color="white" stop-opacity="0.38"/>
<stop offset="0.63" stop-color="white" stop-opacity="0.22"/>
<stop offset="0.78" stop-color="white" stop-opacity="0.1"/>
<stop offset="0.91" stop-color="white" stop-opacity="0.03"/>
<stop offset="1" stop-color="white" stop-opacity="0"/>
</radialGradient>
<radialGradient id="paint21_radial_1_439" cx="0" cy="0" r="1" gradientUnits="userSpaceOnUse" gradientTransform="translate(13.6084 90.4169) rotate(30) scale(9.89 9.89)">
<stop stop-color="#D4F6FF"/>
<stop offset="0.2" stop-color="#D9F7FF"/>
<stop offset="1" stop-color="#89C0F5"/>
</radialGradient>
<radialGradient id="paint22_radial_1_439" cx="0" cy="0" r="1" gradientUnits="userSpaceOnUse" gradientTransform="translate(27.4935 97.1399) rotate(155.956) scale(2.20645 3.23389)">
<stop stop-color="white"/>
<stop offset="0.1" stop-color="white" stop-opacity="0.85"/>
<stop offset="0.29" stop-color="white" stop-opacity="0.59"/>
<stop offset="0.47" stop-color="white" stop-opacity="0.38"/>
<stop offset="0.63" stop-color="white" stop-opacity="0.22"/>
<stop offset="0.78" stop-color="white" stop-opacity="0.1"/>
<stop offset="0.91" stop-color="white" stop-opacity="0.03"/>
<stop offset="1" stop-color="white" stop-opacity="0"/>
</radialGradient>
<radialGradient id="paint23_radial_1_439" cx="0" cy="0" r="1" gradientUnits="userSpaceOnUse" gradientTransform="translate(30.9065 90.4158) rotate(30) scale(9.89 9.88999)">
<stop stop-color="#D4F6FF"/>
<stop offset="0.2" stop-color="#D9F7FF"/>
<stop offset="1" stop-color="#89C0F5"/>
</radialGradient>
<radialGradient id="paint24_radial_1_439" cx="0" cy="0" r="1" gradientUnits="userSpaceOnUse" gradientTransform="translate(44.7706 97.1537) rotate(155.956) scale(2.20645 3.23389)">
<stop stop-color="white"/>
<stop offset="0.1" stop-color="white" stop-opacity="0.85"/>
<stop offset="0.29" stop-color="white" stop-opacity="0.59"/>
<stop offset="0.47" stop-color="white" stop-opacity="0.38"/>
<stop offset="0.63" stop-color="white" stop-opacity="0.22"/>
<stop offset="0.78" stop-color="white" stop-opacity="0.1"/>
<stop offset="0.91" stop-color="white" stop-opacity="0.03"/>
<stop offset="1" stop-color="white" stop-opacity="0"/>
</radialGradient>
<radialGradient id="paint25_radial_1_439" cx="0" cy="0" r="1" gradientUnits="userSpaceOnUse" gradientTransform="translate(48.1958 90.4097) rotate(30) scale(9.89 9.88999)">
<stop stop-color="#D4F6FF"/>
<stop offset="0.2" stop-color="#D9F7FF"/>
<stop offset="1" stop-color="#89C0F5"/>
</radialGradient>
<radialGradient id="paint26_radial_1_439" cx="0" cy="0" r="1" gradientUnits="userSpaceOnUse" gradientTransform="translate(62.027 97.1538) rotate(155.956) scale(2.20645 3.23389)">
<stop stop-color="white"/>
<stop offset="0.1" stop-color="white" stop-opacity="0.85"/>
<stop offset="0.29" stop-color="white" stop-opacity="0.59"/>
<stop offset="0.47" stop-color="white" stop-opacity="0.38"/>
<stop offset="0.63" stop-color="white" stop-opacity="0.22"/>
<stop offset="0.78" stop-color="white" stop-opacity="0.1"/>
<stop offset="0.91" stop-color="white" stop-opacity="0.03"/>
<stop offset="1" stop-color="white" stop-opacity="0"/>
</radialGradient>
<radialGradient id="paint27_radial_1_439" cx="0" cy="0" r="1" gradientUnits="userSpaceOnUse" gradientTransform="translate(65.4939 90.4086) rotate(30) scale(9.89 9.88999)">
<stop stop-color="#D4F6FF"/>
<stop offset="0.2" stop-color="#D9F7FF"/>
<stop offset="1" stop-color="#89C0F5"/>
</radialGradient>
<radialGradient id="paint28_radial_1_439" cx="0" cy="0" r="1" gradientUnits="userSpaceOnUse" gradientTransform="translate(79.3041 97.1676) rotate(155.956) scale(2.20646 3.23389)">
<stop stop-color="white"/>
<stop offset="0.1" stop-color="white" stop-opacity="0.85"/>
<stop offset="0.29" stop-color="white" stop-opacity="0.59"/>
<stop offset="0.47" stop-color="white" stop-opacity="0.38"/>
<stop offset="0.63" stop-color="white" stop-opacity="0.22"/>
<stop offset="0.78" stop-color="white" stop-opacity="0.1"/>
<stop offset="0.91" stop-color="white" stop-opacity="0.03"/>
<stop offset="1" stop-color="white" stop-opacity="0"/>
</radialGradient>
</defs>
</svg>
