<svg width="104" height="89" viewBox="0 0 104 89" fill="none" xmlns="http://www.w3.org/2000/svg">
<path d="M49.35 0.209991C55.7158 0.210105 61.8969 2.34968 66.9005 6.28511C71.9041 10.2205 75.4399 15.7234 76.94 21.91C79.4367 20.7069 82.1723 20.0815 84.9438 20.08C87.7152 20.0786 90.4514 20.7012 92.9494 21.9017C95.4473 23.1022 97.643 24.8497 99.3733 27.0147C101.104 29.1796 102.324 31.7064 102.945 34.4075C103.565 37.1086 103.569 39.9148 102.957 42.6178C102.345 45.3208 101.132 47.8512 99.4084 50.0214C97.6846 52.1916 95.4943 53.9458 93 55.1539C90.5057 56.362 87.7714 56.993 85 57H49.35C41.8205 57 34.5994 54.0089 29.2752 48.6848C23.951 43.3606 20.96 36.1395 20.96 28.61C20.96 21.0805 23.951 13.8594 29.2752 8.53522C34.5994 3.21106 41.8205 0.219986 49.35 0.219986V0.209991Z" fill="url(#paint0_radial_1_443)"/>
<path style="mix-blend-mode:overlay" opacity="0.5" d="M45.7199 27.34C53.1099 21.34 56 12.21 52.17 6.93998C48.34 1.66998 39.2299 2.25997 31.8299 8.25997C24.4299 14.26 21.56 23.39 25.39 28.66C29.22 33.93 38.3299 33.33 45.7199 27.34Z" fill="url(#paint1_radial_1_443)"/>
<path style="mix-blend-mode:overlay" opacity="0.3" d="M82.92 35.13C86.98 31.83 88.57 26.81 86.46 23.92C84.35 21.03 79.35 21.35 75.29 24.64C71.23 27.93 69.64 32.96 71.74 35.85C73.84 38.74 78.85 38.42 82.92 35.13Z" fill="url(#paint2_radial_1_443)"/>
<path style="mix-blend-mode:overlay" opacity="0.2" d="M91.93 42.31C96.4 37.79 101.01 36.02 102.24 38.36C103.47 40.7 100.84 46.26 96.37 50.78C91.9 55.3 87.29 57.06 86.06 54.73C84.83 52.4 87.46 46.83 91.93 42.31Z" fill="url(#paint3_radial_1_443)"/>
<path d="M28.8299 15.56C35.1953 15.5619 41.3755 17.7021 46.3788 21.6373C51.382 25.5724 54.9182 31.0743 56.4199 37.26C58.9191 36.0519 61.6585 35.423 64.4344 35.42C67.2102 35.4171 69.951 36.0402 72.4528 37.243C74.9545 38.4457 77.1528 40.1972 78.884 42.3671C80.6152 44.5369 81.8347 47.0692 82.4519 49.7756C83.0691 52.482 83.068 55.2927 82.4487 57.9986C81.8294 60.7044 80.6079 63.2358 78.8749 65.4043C77.142 67.5728 74.9424 69.3225 72.4397 70.5233C69.937 71.7242 67.1958 72.3451 64.4199 72.34H28.8299C21.3004 72.34 14.0793 69.3489 8.75519 64.0248C3.43103 58.7006 0.439941 51.4795 0.439941 43.95C0.439941 36.4205 3.43103 29.1994 8.75519 23.8752C14.0793 18.5511 21.3004 15.56 28.8299 15.56Z" fill="url(#paint4_radial_1_443)"/>
<path style="mix-blend-mode:overlay" d="M25.19 42.69C32.58 36.69 35.47 27.56 31.64 22.29C27.81 17.02 18.71 17.61 11.31 23.61C3.91001 29.61 1 38.74 4.86 44C8.72 49.26 17.8 48.68 25.19 42.69Z" fill="url(#paint5_radial_1_443)"/>
<path style="mix-blend-mode:overlay" opacity="0.4" d="M62.39 50.48C66.45 47.18 68.04 42.16 65.94 39.27C63.84 36.38 58.83 36.7 54.76 39.99C50.69 43.28 49.12 48.31 51.22 51.2C53.32 54.09 58.33 53.77 62.39 50.48Z" fill="url(#paint6_radial_1_443)"/>
<path style="mix-blend-mode:overlay" opacity="0.2" d="M71.4099 57.66C75.8799 53.14 80.4899 51.37 81.7199 53.71C82.9499 56.05 80.3199 61.6 75.8499 66.13C71.3799 70.66 66.76 72.41 65.53 70.07C64.3 67.73 66.9399 62.18 71.4099 57.66Z" fill="url(#paint7_radial_1_443)"/>
<path d="M26.58 86.94C26.035 87.8842 25.1372 88.5732 24.0842 88.8554C23.0312 89.1376 21.9092 88.99 20.965 88.445C20.0208 87.9 19.3318 87.0022 19.0496 85.9492C18.7673 84.8962 18.915 83.7742 19.46 82.83C20.59 80.83 27.61 76.92 27.61 76.92C27.61 76.92 27.71 85 26.58 86.94Z" fill="url(#paint8_radial_1_443)"/>
<path style="mix-blend-mode:overlay" d="M19.58 86.26C18.94 84.59 19.33 82.84 20.44 82.34C21.55 81.84 22.98 82.79 23.62 84.46C24.26 86.13 23.86 87.88 22.75 88.37C21.64 88.86 20.21 87.92 19.58 86.26Z" fill="url(#paint9_radial_1_443)"/>
<path d="M49.2299 86.94C48.6849 87.8855 47.7866 88.5757 46.7327 88.8589C45.6787 89.1421 44.5554 88.995 43.6099 88.45C42.6644 87.905 41.9742 87.0067 41.691 85.9527C41.4078 84.8988 41.5549 83.7755 42.0999 82.83C43.2399 80.83 50.2599 76.92 50.2599 76.92C50.2599 76.92 50.3599 85 49.2299 86.94Z" fill="url(#paint10_radial_1_443)"/>
<path style="mix-blend-mode:overlay" d="M42.23 86.26C41.59 84.59 41.98 82.84 43.09 82.34C44.2 81.84 45.63 82.79 46.26 84.46C46.89 86.13 46.51 87.88 45.4 88.37C44.29 88.86 42.86 87.92 42.23 86.26Z" fill="url(#paint11_radial_1_443)"/>
<path d="M71.8801 86.94C71.3351 87.8855 70.4368 88.5757 69.3828 88.8589C68.3289 89.1421 67.2056 88.995 66.2601 88.45C65.3146 87.905 64.6243 87.0067 64.3411 85.9527C64.058 84.8988 64.2051 83.7755 64.7501 82.83C65.8901 80.83 72.9101 76.92 72.9101 76.92C72.9101 76.92 73.0001 85 71.8801 86.94Z" fill="url(#paint12_radial_1_443)"/>
<path style="mix-blend-mode:overlay" d="M64.88 86.26C64.24 84.59 64.62 82.84 65.74 82.34C66.86 81.84 68.28 82.79 68.92 84.46C69.56 86.13 69.17 87.88 68.05 88.37C66.93 88.86 65.51 87.92 64.88 86.26Z" fill="url(#paint13_radial_1_443)"/>
<path d="M41.3799 75.12C40.5772 76.4062 39.3066 77.3305 37.8358 77.6981C36.3649 78.0658 34.8088 77.848 33.4954 77.0908C32.1819 76.3336 31.2137 75.0961 30.7949 73.639C30.376 72.1819 30.5391 70.6191 31.2499 69.28C32.8599 66.48 42.8499 60.88 42.8499 60.88C42.8499 60.88 42.9999 72.33 41.3799 75.12Z" fill="url(#paint14_radial_1_443)"/>
<path style="mix-blend-mode:overlay" d="M31.42 74.15C30.52 71.79 31.07 69.3 32.65 68.59C34.23 67.88 36.26 69.23 37.17 71.59C38.08 73.95 37.52 76.45 35.94 77.15C34.36 77.85 32.33 76.52 31.42 74.15Z" fill="url(#paint15_radial_1_443)"/>
<path d="M65.8101 75.12C65.0356 76.462 63.7598 77.4414 62.2632 77.8427C60.7667 78.244 59.1721 78.0344 57.8301 77.26C56.4881 76.4856 55.5087 75.2098 55.1074 73.7132C54.706 72.2167 54.9156 70.622 55.6901 69.28C57.3101 66.48 67.29 60.88 67.29 60.88C67.29 60.88 67.4301 72.33 65.8101 75.12Z" fill="url(#paint16_radial_1_443)"/>
<path style="mix-blend-mode:overlay" d="M55.8599 74.15C54.9599 71.79 55.51 69.3 57.09 68.59C58.67 67.88 60.6999 69.23 61.5999 71.59C62.4999 73.95 61.96 76.45 60.38 77.15C58.8 77.85 56.7699 76.52 55.8599 74.15Z" fill="url(#paint17_radial_1_443)"/>
<defs>
<radialGradient id="paint0_radial_1_443" cx="0" cy="0" r="1" gradientUnits="userSpaceOnUse" gradientTransform="translate(38.71 8.00999) rotate(180) scale(70.49 70.49)">
<stop stop-color="#BAD0D6"/>
<stop offset="0.2" stop-color="#9BBAC2"/>
<stop offset="1" stop-color="#5D8BB8"/>
</radialGradient>
<radialGradient id="paint1_radial_1_443" cx="0" cy="0" r="1" gradientUnits="userSpaceOnUse" gradientTransform="translate(36.5374 9.18838) rotate(53.8543) scale(11.7774 17.2088)">
<stop stop-color="white"/>
<stop offset="0.1" stop-color="white" stop-opacity="0.85"/>
<stop offset="0.29" stop-color="white" stop-opacity="0.59"/>
<stop offset="0.47" stop-color="white" stop-opacity="0.38"/>
<stop offset="0.63" stop-color="white" stop-opacity="0.22"/>
<stop offset="0.78" stop-color="white" stop-opacity="0.1"/>
<stop offset="0.91" stop-color="white" stop-opacity="0.03"/>
<stop offset="1" stop-color="white" stop-opacity="0"/>
</radialGradient>
<radialGradient id="paint2_radial_1_443" cx="0" cy="0" r="1" gradientUnits="userSpaceOnUse" gradientTransform="translate(76.8952 21.2239) rotate(53.8543) scale(6.47972 9.46798)">
<stop stop-color="white"/>
<stop offset="0.1" stop-color="white" stop-opacity="0.85"/>
<stop offset="0.29" stop-color="white" stop-opacity="0.59"/>
<stop offset="0.47" stop-color="white" stop-opacity="0.38"/>
<stop offset="0.63" stop-color="white" stop-opacity="0.22"/>
<stop offset="0.78" stop-color="white" stop-opacity="0.1"/>
<stop offset="0.91" stop-color="white" stop-opacity="0.03"/>
<stop offset="1" stop-color="white" stop-opacity="0"/>
</radialGradient>
<radialGradient id="paint3_radial_1_443" cx="0" cy="0" r="1" gradientUnits="userSpaceOnUse" gradientTransform="translate(86.8446 43.5927) rotate(-147.061) scale(4.01845 10.9111)">
<stop stop-color="white"/>
<stop offset="0.1" stop-color="white" stop-opacity="0.85"/>
<stop offset="0.29" stop-color="white" stop-opacity="0.59"/>
<stop offset="0.47" stop-color="white" stop-opacity="0.38"/>
<stop offset="0.63" stop-color="white" stop-opacity="0.22"/>
<stop offset="0.78" stop-color="white" stop-opacity="0.1"/>
<stop offset="0.91" stop-color="white" stop-opacity="0.03"/>
<stop offset="1" stop-color="white" stop-opacity="0"/>
</radialGradient>
<radialGradient id="paint4_radial_1_443" cx="0" cy="0" r="1" gradientUnits="userSpaceOnUse" gradientTransform="translate(18.1899 23.35) rotate(180) scale(70.49 70.49)">
<stop stop-color="white"/>
<stop offset="0.2" stop-color="#D9F7FF"/>
<stop offset="1" stop-color="#89C0F5"/>
</radialGradient>
<radialGradient id="paint5_radial_1_443" cx="0" cy="0" r="1" gradientUnits="userSpaceOnUse" gradientTransform="translate(15.9826 24.5111) rotate(53.8543) scale(11.7774 17.2088)">
<stop stop-color="white"/>
<stop offset="0.1" stop-color="white" stop-opacity="0.85"/>
<stop offset="0.29" stop-color="white" stop-opacity="0.59"/>
<stop offset="0.47" stop-color="white" stop-opacity="0.38"/>
<stop offset="0.63" stop-color="white" stop-opacity="0.22"/>
<stop offset="0.78" stop-color="white" stop-opacity="0.1"/>
<stop offset="0.91" stop-color="white" stop-opacity="0.03"/>
<stop offset="1" stop-color="white" stop-opacity="0"/>
</radialGradient>
<radialGradient id="paint6_radial_1_443" cx="0" cy="0" r="1" gradientUnits="userSpaceOnUse" gradientTransform="translate(56.3566 36.5335) rotate(53.8543) scale(6.47972 9.46797)">
<stop stop-color="white"/>
<stop offset="0.1" stop-color="white" stop-opacity="0.85"/>
<stop offset="0.29" stop-color="white" stop-opacity="0.59"/>
<stop offset="0.47" stop-color="white" stop-opacity="0.38"/>
<stop offset="0.63" stop-color="white" stop-opacity="0.22"/>
<stop offset="0.78" stop-color="white" stop-opacity="0.1"/>
<stop offset="0.91" stop-color="white" stop-opacity="0.03"/>
<stop offset="1" stop-color="white" stop-opacity="0"/>
</radialGradient>
<radialGradient id="paint7_radial_1_443" cx="0" cy="0" r="1" gradientUnits="userSpaceOnUse" gradientTransform="translate(66.2174 58.8787) rotate(-147.061) scale(4.01845 10.9111)">
<stop stop-color="white"/>
<stop offset="0.1" stop-color="white" stop-opacity="0.85"/>
<stop offset="0.29" stop-color="white" stop-opacity="0.59"/>
<stop offset="0.47" stop-color="white" stop-opacity="0.38"/>
<stop offset="0.63" stop-color="white" stop-opacity="0.22"/>
<stop offset="0.78" stop-color="white" stop-opacity="0.1"/>
<stop offset="0.91" stop-color="white" stop-opacity="0.03"/>
<stop offset="1" stop-color="white" stop-opacity="0"/>
</radialGradient>
<radialGradient id="paint8_radial_1_443" cx="0" cy="0" r="1" gradientUnits="userSpaceOnUse" gradientTransform="translate(21.0795 86.0074) rotate(30) scale(9.88999 9.89)">
<stop stop-color="#D4F6FF"/>
<stop offset="0.2" stop-color="#D9F7FF"/>
<stop offset="1" stop-color="#89C0F5"/>
</radialGradient>
<radialGradient id="paint9_radial_1_443" cx="0" cy="0" r="1" gradientUnits="userSpaceOnUse" gradientTransform="translate(33.8965 92.4121) rotate(155.956) scale(2.20645 3.23389)">
<stop stop-color="white"/>
<stop offset="0.1" stop-color="white" stop-opacity="0.85"/>
<stop offset="0.29" stop-color="white" stop-opacity="0.59"/>
<stop offset="0.47" stop-color="white" stop-opacity="0.38"/>
<stop offset="0.63" stop-color="white" stop-opacity="0.22"/>
<stop offset="0.78" stop-color="white" stop-opacity="0.1"/>
<stop offset="0.91" stop-color="white" stop-opacity="0.03"/>
<stop offset="1" stop-color="white" stop-opacity="0"/>
</radialGradient>
<radialGradient id="paint10_radial_1_443" cx="0" cy="0" r="1" gradientUnits="userSpaceOnUse" gradientTransform="translate(43.7272 86.0004) rotate(30) scale(9.89 9.89)">
<stop stop-color="#D4F6FF"/>
<stop offset="0.2" stop-color="#D9F7FF"/>
<stop offset="1" stop-color="#89C0F5"/>
</radialGradient>
<radialGradient id="paint11_radial_1_443" cx="0" cy="0" r="1" gradientUnits="userSpaceOnUse" gradientTransform="translate(56.5165 92.4181) rotate(155.956) scale(2.20645 3.23389)">
<stop stop-color="white"/>
<stop offset="0.1" stop-color="white" stop-opacity="0.85"/>
<stop offset="0.29" stop-color="white" stop-opacity="0.59"/>
<stop offset="0.47" stop-color="white" stop-opacity="0.38"/>
<stop offset="0.63" stop-color="white" stop-opacity="0.22"/>
<stop offset="0.78" stop-color="white" stop-opacity="0.1"/>
<stop offset="0.91" stop-color="white" stop-opacity="0.03"/>
<stop offset="1" stop-color="white" stop-opacity="0"/>
</radialGradient>
<radialGradient id="paint12_radial_1_443" cx="0" cy="0" r="1" gradientUnits="userSpaceOnUse" gradientTransform="translate(66.3787 86.007) rotate(30.0001) scale(9.88997 9.88999)">
<stop stop-color="#D4F6FF"/>
<stop offset="0.2" stop-color="#D9F7FF"/>
<stop offset="1" stop-color="#89C0F5"/>
</radialGradient>
<radialGradient id="paint13_radial_1_443" cx="0" cy="0" r="1" gradientUnits="userSpaceOnUse" gradientTransform="translate(79.1365 92.4241) rotate(155.956) scale(2.20644 3.23389)">
<stop stop-color="white"/>
<stop offset="0.1" stop-color="white" stop-opacity="0.85"/>
<stop offset="0.29" stop-color="white" stop-opacity="0.59"/>
<stop offset="0.47" stop-color="white" stop-opacity="0.38"/>
<stop offset="0.63" stop-color="white" stop-opacity="0.22"/>
<stop offset="0.78" stop-color="white" stop-opacity="0.1"/>
<stop offset="0.91" stop-color="white" stop-opacity="0.03"/>
<stop offset="1" stop-color="white" stop-opacity="0"/>
</radialGradient>
<radialGradient id="paint14_radial_1_443" cx="0" cy="0" r="1" gradientUnits="userSpaceOnUse" gradientTransform="translate(33.5547 73.7996) rotate(30) scale(14.06 14.06)">
<stop stop-color="#D4F6FF"/>
<stop offset="0.2" stop-color="#D9F7FF"/>
<stop offset="1" stop-color="#89C0F5"/>
</radialGradient>
<radialGradient id="paint15_radial_1_443" cx="0" cy="0" r="1" gradientUnits="userSpaceOnUse" gradientTransform="translate(46.5445 79.9153) rotate(155.956) scale(3.13174 4.59004)">
<stop stop-color="white"/>
<stop offset="0.1" stop-color="white" stop-opacity="0.85"/>
<stop offset="0.29" stop-color="white" stop-opacity="0.59"/>
<stop offset="0.47" stop-color="white" stop-opacity="0.38"/>
<stop offset="0.63" stop-color="white" stop-opacity="0.22"/>
<stop offset="0.78" stop-color="white" stop-opacity="0.1"/>
<stop offset="0.91" stop-color="white" stop-opacity="0.03"/>
<stop offset="1" stop-color="white" stop-opacity="0"/>
</radialGradient>
<radialGradient id="paint16_radial_1_443" cx="0" cy="0" r="1" gradientUnits="userSpaceOnUse" gradientTransform="translate(57.995 73.7881) rotate(30.0001) scale(14.06 14.06)">
<stop stop-color="#D4F6FF"/>
<stop offset="0.2" stop-color="#D9F7FF"/>
<stop offset="1" stop-color="#89C0F5"/>
</radialGradient>
<radialGradient id="paint17_radial_1_443" cx="0" cy="0" r="1" gradientUnits="userSpaceOnUse" gradientTransform="translate(70.9479 79.9252) rotate(155.956) scale(3.13173 4.59004)">
<stop stop-color="white"/>
<stop offset="0.1" stop-color="white" stop-opacity="0.85"/>
<stop offset="0.29" stop-color="white" stop-opacity="0.59"/>
<stop offset="0.47" stop-color="white" stop-opacity="0.38"/>
<stop offset="0.63" stop-color="white" stop-opacity="0.22"/>
<stop offset="0.78" stop-color="white" stop-opacity="0.1"/>
<stop offset="0.91" stop-color="white" stop-opacity="0.03"/>
<stop offset="1" stop-color="white" stop-opacity="0"/>
</radialGradient>
</defs>
</svg>
