<svg width="54" height="64" viewBox="0 0 54 64" fill="none" xmlns="http://www.w3.org/2000/svg">
<path d="M15.78 32.8C15.7781 35.6722 16.628 38.4805 18.2222 40.8696C19.8165 43.2587 22.0835 45.1213 24.7365 46.2219C27.3895 47.3224 30.3093 47.6113 33.1266 47.0522C35.9439 46.4931 38.532 45.111 40.5637 43.0807C42.5953 41.0505 43.9792 38.4633 44.5403 35.6464C45.1014 32.8295 44.8144 29.9095 43.7157 27.2557C42.617 24.602 40.756 22.3337 38.368 20.7378C35.9799 19.1418 33.1722 18.29 30.3 18.29C26.4508 18.29 22.7591 19.8184 20.0364 22.5393C17.3136 25.2601 15.7827 28.9508 15.78 32.8Z" fill="url(#paint0_radial_1_437)"/>
<path style="mix-blend-mode:overlay" d="M32.51 31.31C28.81 28.31 27.37 23.74 29.28 21.11C31.19 18.48 35.75 18.77 39.45 21.77C43.15 24.77 44.59 29.33 42.67 31.96C40.75 34.59 36.2 34.3 32.51 31.31Z" fill="url(#paint1_radial_1_437)"/>
<path style="mix-blend-mode:overlay" opacity="0.4" d="M17.4699 36C17.9599 34.39 20.4699 35.06 23.0299 37.48C25.5899 39.9 27.3099 43.17 26.8199 44.78C26.3299 46.39 23.8199 45.72 21.2599 43.29C18.6999 40.86 16.9999 37.61 17.4699 36Z" fill="url(#paint2_radial_1_437)"/>
<path d="M32.06 14C32.06 14.4668 31.8746 14.9144 31.5445 15.2445C31.2145 15.5746 30.7668 15.76 30.3 15.76C29.8333 15.76 29.3856 15.5746 29.0555 15.2445C28.7255 14.9144 28.54 14.4668 28.54 14V11.5C28.54 11.0332 28.7255 10.5856 29.0555 10.2555C29.3856 9.92543 29.8333 9.73999 30.3 9.73999C30.7668 9.73999 31.2145 9.92543 31.5445 10.2555C31.8746 10.5856 32.06 11.0332 32.06 11.5V14Z" fill="url(#paint3_radial_1_437)"/>
<path d="M18.25 18.26C18.5779 18.5914 18.7619 19.0388 18.7619 19.505C18.7619 19.9712 18.5779 20.4186 18.25 20.75C18.0865 20.9136 17.8925 21.0433 17.6788 21.1319C17.4652 21.2204 17.2362 21.266 17.005 21.266C16.7737 21.266 16.5448 21.2204 16.3311 21.1319C16.1175 21.0433 15.9234 20.9136 15.76 20.75L14 19C13.8364 18.8366 13.7066 18.6425 13.6181 18.4288C13.5296 18.2152 13.484 17.9862 13.484 17.755C13.484 17.5238 13.5296 17.2948 13.6181 17.0811C13.7066 16.8675 13.8364 16.6735 14 16.51C14.3314 16.1821 14.7788 15.9981 15.245 15.9981C15.7112 15.9981 16.1586 16.1821 16.49 16.51L18.25 18.26Z" fill="url(#paint4_radial_1_437)"/>
<path d="M11.49 31C11.9568 31 12.4044 31.1854 12.7345 31.5155C13.0646 31.8456 13.25 32.2932 13.25 32.76C13.25 33.2268 13.0646 33.6745 12.7345 34.0045C12.4044 34.3346 11.9568 34.52 11.49 34.52H8.99999C8.53321 34.52 8.08555 34.3346 7.75549 34.0045C7.42542 33.6745 7.23999 33.2268 7.23999 32.76C7.23999 32.2932 7.42542 31.8456 7.75549 31.5155C8.08555 31.1854 8.53321 31 8.99999 31H11.49Z" fill="url(#paint5_radial_1_437)"/>
<path d="M15.76 44.85C15.9234 44.6864 16.1175 44.5566 16.3311 44.4681C16.5448 44.3796 16.7737 44.334 17.005 44.334C17.2362 44.334 17.4652 44.3796 17.6788 44.4681C17.8924 44.5566 18.0865 44.6864 18.25 44.85C18.5779 45.1814 18.7619 45.6288 18.7619 46.095C18.7619 46.5612 18.5779 47.0086 18.25 47.34L16.48 49.11C16.1486 49.4379 15.7012 49.6219 15.235 49.6219C14.7688 49.6219 14.3214 49.4379 13.99 49.11C13.8264 48.9465 13.6966 48.7525 13.6081 48.5388C13.5196 48.3252 13.474 48.0962 13.474 47.865C13.474 47.6337 13.5196 47.4048 13.6081 47.1912C13.6966 46.9775 13.8264 46.7834 13.99 46.62L15.76 44.85Z" fill="url(#paint6_radial_1_437)"/>
<path d="M28.54 51.6C28.54 51.1332 28.7255 50.6856 29.0555 50.3555C29.3856 50.0254 29.8333 49.84 30.3 49.84C30.7668 49.84 31.2145 50.0254 31.5445 50.3555C31.8746 50.6856 32.06 51.1332 32.06 51.6V54.1C32.06 54.5668 31.8746 55.0144 31.5445 55.3445C31.2145 55.6746 30.7668 55.86 30.3 55.86C29.8333 55.86 29.3856 55.6746 29.0555 55.3445C28.7255 55.0144 28.54 54.5668 28.54 54.1V51.6Z" fill="url(#paint7_radial_1_437)"/>
<path d="M42.35 47.34C42.1864 47.1765 42.0566 46.9825 41.9681 46.7688C41.8796 46.5552 41.834 46.3262 41.834 46.095C41.834 45.8638 41.8796 45.6348 41.9681 45.4211C42.0566 45.2075 42.1864 45.0135 42.35 44.85C42.5134 44.6864 42.7075 44.5566 42.9211 44.4681C43.1348 44.3796 43.3637 44.334 43.595 44.334C43.8262 44.334 44.0552 44.3796 44.2688 44.4681C44.4824 44.5566 44.6765 44.6864 44.84 44.85L46.6 46.62C46.7636 46.7834 46.8933 46.9775 46.9818 47.1912C47.0704 47.4048 47.116 47.6337 47.116 47.865C47.116 48.0962 47.0704 48.3252 46.9818 48.5388C46.8933 48.7525 46.7636 48.9465 46.6 49.11C46.2686 49.4379 45.8212 49.6219 45.355 49.6219C44.8887 49.6219 44.4414 49.4379 44.11 49.11L42.35 47.34Z" fill="url(#paint8_radial_1_437)"/>
<path d="M49.1001 34.56C48.6333 34.56 48.1856 34.3746 47.8556 34.0445C47.5255 33.7144 47.3401 33.2668 47.3401 32.8C47.3347 32.5655 47.3763 32.3324 47.4624 32.1142C47.5484 31.896 47.6772 31.6972 47.8412 31.5295C48.0052 31.3618 48.201 31.2286 48.4172 31.1377C48.6334 31.0468 48.8655 30.9999 49.1001 31H51.6001C52.0668 31 52.5145 31.1854 52.8446 31.5155C53.1746 31.8456 53.3601 32.2932 53.3601 32.76C53.3601 33.2268 53.1746 33.6745 52.8446 34.0045C52.5145 34.3346 52.0668 34.52 51.6001 34.52L49.1001 34.56Z" fill="url(#paint9_radial_1_437)"/>
<path d="M44.84 20.75C44.6765 20.9136 44.4824 21.0433 44.2688 21.1319C44.0552 21.2204 43.8262 21.266 43.595 21.266C43.3637 21.266 43.1348 21.2204 42.9211 21.1319C42.7075 21.0433 42.5134 20.9136 42.35 20.75C42.1864 20.5866 42.0566 20.3925 41.9681 20.1788C41.8796 19.9652 41.834 19.7362 41.834 19.505C41.834 19.2738 41.8796 19.0448 41.9681 18.8311C42.0566 18.6175 42.1864 18.4235 42.35 18.26L44.11 16.49C44.4414 16.1621 44.8887 15.9781 45.355 15.9781C45.8212 15.9781 46.2686 16.1621 46.6 16.49C46.7636 16.6534 46.8933 16.8475 46.9818 17.0612C47.0704 17.2748 47.116 17.5037 47.116 17.735C47.116 17.9662 47.0704 18.1952 46.9818 18.4088C46.8933 18.6225 46.7636 18.8166 46.6 18.98L44.84 20.75Z" fill="url(#paint10_radial_1_437)"/>
<path d="M6.73999 45.57C6.73999 47.2488 7.4069 48.8589 8.59401 50.046C9.78111 51.2331 11.3912 51.9 13.07 51.9C14.7488 51.9 16.3589 51.2331 17.546 50.046C18.7331 48.8589 19.4 47.2488 19.4 45.57V6.37C19.4 4.69117 18.7331 3.08112 17.546 1.89401C16.3589 0.706907 14.7488 0.0400085 13.07 0.0400085C11.3912 0.0400085 9.78111 0.706907 8.59401 1.89401C7.4069 3.08112 6.73999 4.69117 6.73999 6.37V45.57Z" fill="url(#paint11_linear_1_437)"/>
<path d="M26.13 50.48C26.13 53.063 25.3641 55.588 23.929 57.7357C22.494 59.8835 20.4543 61.5574 18.0679 62.5459C15.6815 63.5343 13.0555 63.793 10.5221 63.2891C7.98874 62.7851 5.66167 61.5413 3.8352 59.7148C2.00873 57.8883 0.764881 55.5613 0.260958 53.0279C-0.242965 50.4945 0.0156726 47.8686 1.00415 45.4821C1.99263 43.0957 3.66657 41.0561 5.81427 39.621C7.96198 38.186 10.487 37.42 13.07 37.42C16.5337 37.42 19.8556 38.796 22.3048 41.2452C24.7541 43.6944 26.13 47.0163 26.13 50.48Z" fill="url(#paint12_radial_1_437)"/>
<defs>
<radialGradient id="paint0_radial_1_437" cx="0" cy="0" r="1" gradientUnits="userSpaceOnUse" gradientTransform="translate(33.61 23.7) rotate(180) scale(27.55 27.55)">
<stop stop-color="#FFF8C7"/>
<stop offset="0.16" stop-color="#FFE436"/>
<stop offset="1" stop-color="#FE761C"/>
</radialGradient>
<radialGradient id="paint1_radial_1_437" cx="0" cy="0" r="1" gradientUnits="userSpaceOnUse" gradientTransform="translate(36.9416 16.4205) rotate(126.146) scale(5.89583 8.61482)">
<stop stop-color="white"/>
<stop offset="0.1" stop-color="white" stop-opacity="0.85"/>
<stop offset="0.29" stop-color="white" stop-opacity="0.59"/>
<stop offset="0.47" stop-color="white" stop-opacity="0.38"/>
<stop offset="0.63" stop-color="white" stop-opacity="0.22"/>
<stop offset="0.78" stop-color="white" stop-opacity="0.1"/>
<stop offset="0.91" stop-color="white" stop-opacity="0.03"/>
<stop offset="1" stop-color="white" stop-opacity="0"/>
</radialGradient>
<radialGradient id="paint2_radial_1_437" cx="0" cy="0" r="1" gradientUnits="userSpaceOnUse" gradientTransform="translate(12.4406 34.0333) rotate(-136.766) scale(6.40752 2.72336)">
<stop stop-color="white"/>
<stop offset="0.1" stop-color="white" stop-opacity="0.85"/>
<stop offset="0.29" stop-color="white" stop-opacity="0.59"/>
<stop offset="0.47" stop-color="white" stop-opacity="0.38"/>
<stop offset="0.63" stop-color="white" stop-opacity="0.22"/>
<stop offset="0.78" stop-color="white" stop-opacity="0.1"/>
<stop offset="0.91" stop-color="white" stop-opacity="0.03"/>
<stop offset="1" stop-color="white" stop-opacity="0"/>
</radialGradient>
<radialGradient id="paint3_radial_1_437" cx="0" cy="0" r="1" gradientUnits="userSpaceOnUse" gradientTransform="translate(30.62 10.63) scale(4.79 4.79002)">
<stop stop-color="#FFF8C7"/>
<stop offset="0.16" stop-color="#FFE436"/>
<stop offset="1" stop-color="#FE761C"/>
</radialGradient>
<radialGradient id="paint4_radial_1_437" cx="0" cy="0" r="1" gradientUnits="userSpaceOnUse" gradientTransform="translate(14.8425 16.892) rotate(-44.9999) scale(4.79)">
<stop stop-color="#FFF8C7"/>
<stop offset="0.16" stop-color="#FFE436"/>
<stop offset="1" stop-color="#FE761C"/>
</radialGradient>
<radialGradient id="paint5_radial_1_437" cx="0" cy="0" r="1" gradientUnits="userSpaceOnUse" gradientTransform="translate(8.12999 32.48) rotate(-90) scale(4.78999 4.79)">
<stop stop-color="#FFF8C7"/>
<stop offset="0.16" stop-color="#FFE436"/>
<stop offset="1" stop-color="#FE761C"/>
</radialGradient>
<radialGradient id="paint6_radial_1_437" cx="0" cy="0" r="1" gradientUnits="userSpaceOnUse" gradientTransform="translate(14.3817 48.2436) rotate(-135) scale(4.79001)">
<stop stop-color="#FFF8C7"/>
<stop offset="0.16" stop-color="#FFE436"/>
<stop offset="1" stop-color="#FE761C"/>
</radialGradient>
<radialGradient id="paint7_radial_1_437" cx="0" cy="0" r="1" gradientUnits="userSpaceOnUse" gradientTransform="translate(29.98 54.97) rotate(180) scale(4.79 4.78999)">
<stop stop-color="#FFF8C7"/>
<stop offset="0.16" stop-color="#FFE436"/>
<stop offset="1" stop-color="#FE761C"/>
</radialGradient>
<radialGradient id="paint8_radial_1_437" cx="0" cy="0" r="1" gradientUnits="userSpaceOnUse" gradientTransform="translate(45.7262 48.6974) rotate(135) scale(4.79)">
<stop stop-color="#FFF8C7"/>
<stop offset="0.16" stop-color="#FFE436"/>
<stop offset="1" stop-color="#FE761C"/>
</radialGradient>
<radialGradient id="paint9_radial_1_437" cx="0" cy="0" r="1" gradientUnits="userSpaceOnUse" gradientTransform="translate(52.4701 33.12) rotate(90) scale(4.79 4.79)">
<stop stop-color="#FFF8C7"/>
<stop offset="0.16" stop-color="#FFE436"/>
<stop offset="1" stop-color="#FE761C"/>
</radialGradient>
<radialGradient id="paint10_radial_1_437" cx="0" cy="0" r="1" gradientUnits="userSpaceOnUse" gradientTransform="translate(46.197 17.3599) rotate(45.0001) scale(4.79)">
<stop stop-color="#FFF8C7"/>
<stop offset="0.16" stop-color="#FFE436"/>
<stop offset="1" stop-color="#FE761C"/>
</radialGradient>
<linearGradient id="paint11_linear_1_437" x1="13.07" y1="0.970008" x2="13.07" y2="27.4" gradientUnits="userSpaceOnUse">
<stop stop-color="#ED3C28"/>
<stop offset="1" stop-color="#BF160A"/>
</linearGradient>
<radialGradient id="paint12_radial_1_437" cx="0" cy="0" r="1" gradientUnits="userSpaceOnUse" gradientTransform="translate(9.42001 58.05) scale(20.31 20.31)">
<stop stop-color="#FF949E"/>
<stop offset="0.2" stop-color="#ED3C28"/>
<stop offset="1" stop-color="#BF160A"/>
</radialGradient>
</defs>
</svg>
