<svg width="231" height="66" viewBox="0 0 231 66" fill="none" xmlns="http://www.w3.org/2000/svg">
<g clip-path="url(#clip0_203_762)">
<path fill-rule="evenodd" clip-rule="evenodd" d="M55.0254 57.7752C34.8862 70.5595 13.2439 67.772 4.37253 53.9639C-4.50035 40.1559 1.32224 19.4667 21.767 7.39191C42.2133 -4.68288 63.8021 -1.15382 71.8104 12.1904C79.8203 25.5346 75.1647 44.9895 55.0254 57.7752Z" fill="#E31E24"/>
<path fill-rule="evenodd" clip-rule="evenodd" d="M12.271 14.5446L59.3206 14.4607L29.6288 65.9853C25.1473 66.0723 20.9239 65.3887 17.1511 63.9942L39.0637 26.1617H3.68066C5.66022 22.0879 8.52569 18.1393 12.271 14.5446Z" fill="white"/>
<path d="M71.0254 4.47922C71.1522 3.87808 71.3736 3.34254 71.7005 2.85735C72.0258 2.37369 72.4062 1.96326 72.8583 1.61691C73.3013 1.27972 73.787 1.01577 74.3124 0.826576C74.8394 0.648063 75.3679 0.553467 75.904 0.553467C76.4417 0.553467 76.9259 0.648063 77.3795 0.826576C77.8316 1.01577 78.2013 1.27972 78.5068 1.61691C78.8016 1.96326 79.0124 2.37369 79.13 2.85735C79.2445 3.34254 79.2445 3.87808 79.1177 4.47922C78.9803 5.07884 78.7603 5.62659 78.4335 6.11025C78.1066 6.59544 77.7278 7.00587 77.2848 7.35221C76.8312 7.69856 76.347 7.96251 75.82 8.14102C75.293 8.32106 74.7661 8.41566 74.2284 8.41566C73.6923 8.41566 73.2066 8.32106 72.7529 8.14102C72.3008 7.96251 71.9327 7.69856 71.6364 7.35221C71.3309 7.00587 71.1201 6.59544 71.004 6.11025C70.8879 5.62659 70.8879 5.07884 71.0254 4.47922ZM72.0992 4.47922C72.006 4.93085 71.9953 5.34127 72.0686 5.72118C72.1419 6.09957 72.2794 6.42608 72.4902 6.69919C72.6903 6.98298 72.9652 7.19353 73.2906 7.35221C73.619 7.51089 73.9978 7.58413 74.4087 7.58413C74.8195 7.58413 75.2197 7.51089 75.6092 7.35221C76.0002 7.19353 76.3684 6.98298 76.6952 6.69919C77.0221 6.42608 77.2955 6.09957 77.5384 5.72118C77.7797 5.34127 77.9493 4.93085 78.044 4.47922C78.1387 4.02608 78.1387 3.61565 78.0653 3.23726C77.9905 2.86803 77.8439 2.54305 77.6422 2.26841C77.433 1.9953 77.158 1.78475 76.8312 1.62607C76.5058 1.46892 76.1362 1.39568 75.7253 1.39568C75.3159 1.39568 74.9035 1.46892 74.514 1.62607C74.123 1.78475 73.7656 1.9953 73.4387 2.26841C73.1119 2.54305 72.8278 2.86803 72.5956 3.23726C72.3542 3.61565 72.1954 4.02608 72.0992 4.47922ZM75.6306 2.26841C76.1881 2.26841 76.5898 2.36301 76.8526 2.56288C77.1046 2.76428 77.1794 3.09994 77.0832 3.57293C77.0435 3.7728 76.9793 3.95284 76.8846 4.08863C76.7884 4.23663 76.6845 4.35259 76.5578 4.44718C76.431 4.54178 76.2935 4.60433 76.1469 4.65774C75.988 4.70961 75.8307 4.74165 75.6734 4.75233L76.4417 6.67936H75.5252L74.8516 4.79353H74.3231L73.9229 6.67936H73.0278L73.9657 2.26841H75.6306ZM75.2304 4.10999C75.4717 4.10999 75.6734 4.07948 75.8521 4.00471C76.0308 3.93148 76.1469 3.76212 76.1988 3.49969C76.2309 3.38526 76.2217 3.28914 76.1774 3.21438C76.1362 3.14114 76.0736 3.08926 76.0002 3.04807C75.9254 3.01603 75.8307 2.98399 75.736 2.97331C75.6306 2.96263 75.5252 2.95347 75.4305 2.95347H74.7141L74.4713 4.10999H75.2304Z" fill="#E31E24"/>
<path d="M223.03 40.6869H210.27L206.375 47.7771H199.517L217.675 15.6448H225.156L230.353 47.7771H224.078L223.03 40.6869ZM222.236 35.301L220.326 22.3764L213.227 35.301H222.236Z" fill="black"/>
<path d="M188.368 47.7771L195.107 15.6448H201.711L194.978 47.7771H188.368Z" fill="black"/>
<path d="M154.517 47.7771L161.256 15.6448H170.947C173.365 15.6448 174.916 15.6814 175.589 15.7562C176.923 15.8828 178.12 16.1528 179.169 16.5633C180.217 16.9752 181.169 17.5428 182.029 18.2843C182.89 19.0243 183.633 19.9077 184.254 20.9468C184.874 21.9873 185.354 23.1835 185.692 24.5292C186.028 25.8841 186.2 27.3641 186.2 28.9722C186.2 32.4357 185.534 35.5024 184.208 38.1877C182.883 40.8654 181.213 42.9984 179.206 44.5761C177.663 45.8028 175.679 46.7075 173.246 47.2919C171.868 47.6123 169.748 47.7771 166.889 47.7771H154.517ZM162.207 42.6155H166.582C169.023 42.6155 170.79 42.4659 171.884 42.1669C172.983 41.8678 173.987 41.3079 174.893 40.484C176.203 39.3031 177.304 37.7239 178.203 35.7496C179.101 33.7753 179.551 31.4485 179.551 28.7708C179.551 26.4898 179.177 24.7764 178.435 23.6245C177.694 22.4801 176.781 21.7173 175.687 21.3358C174.923 21.0749 173.568 20.9391 171.606 20.9391H166.747L162.207 42.6155Z" fill="black"/>
<path d="M125.043 47.7771L131.782 15.6448H138.387H155.487L154.356 21.0291H137.258L135.735 28.2994H152.478L151.353 33.6853H134.606L132.783 42.3927H149.876L148.748 47.7771H131.654H125.043Z" fill="black"/>
<path d="M106.291 47.7771H99.9994L98.8095 20.9315L93.2573 47.7771H93.0969H87.7417H86.4846L93.2237 15.6448H94.4731H99.8283H103.908L104.896 37.7315L115.014 15.6448H119.314H124.532H125.918L119.187 47.7771H118.804L118.798 47.8137L112.669 47.7771H112.575L118.081 21.5265L106.291 47.7771Z" fill="black"/>
<path d="M187.068 62.1283H185.481L187.099 54.4141H190.231C190.792 54.4141 191.232 54.4797 191.556 54.6109C191.879 54.7421 192.138 54.9603 192.325 55.2639C192.515 55.566 192.609 55.9291 192.609 56.3487C192.609 56.7393 192.535 57.1177 192.383 57.4869C192.232 57.8562 192.047 58.1506 191.829 58.3719C191.609 58.5931 191.374 58.7594 191.12 58.8738C190.868 58.9867 190.528 59.0737 190.098 59.1347C189.851 59.1683 189.384 59.1866 188.701 59.1866H187.685L187.068 62.1283ZM187.954 57.8943H188.443C189.281 57.8943 189.84 57.8409 190.12 57.7371C190.401 57.6334 190.622 57.4671 190.784 57.2367C190.943 57.0063 191.026 56.753 191.026 56.4784C191.026 56.2938 190.984 56.1427 190.9 56.0237C190.818 55.9062 190.703 55.8193 190.554 55.7659C190.404 55.7125 190.072 55.685 189.556 55.685H188.418L187.954 57.8943Z" fill="black"/>
<path d="M171.164 54.4141H172.747L171.83 58.6099L171.598 59.6382C171.584 59.7252 171.569 59.8381 171.547 59.9754C171.547 60.2546 171.668 60.4865 171.909 60.6696C172.154 60.8512 172.505 60.9428 172.966 60.9428C173.383 60.9428 173.726 60.871 173.997 60.7261C174.269 60.5811 174.479 60.366 174.628 60.0822C174.776 59.7969 174.926 59.3117 175.08 58.6297L175.963 54.4141H177.55L176.635 58.7823C176.443 59.6352 176.22 60.2867 175.969 60.7398C175.717 61.193 175.337 61.5592 174.828 61.8429C174.32 62.1267 173.674 62.2686 172.896 62.2686C171.964 62.2686 171.251 62.0474 170.756 61.6049C170.26 61.164 170.014 60.5964 170.014 59.9037C170.02 59.7618 170.038 59.6047 170.066 59.4384C170.083 59.327 170.145 59.0066 170.257 58.4817L171.164 54.4141Z" fill="black"/>
<path d="M154.76 59.1012C154.76 58.6434 154.828 58.1628 154.964 57.6563C155.144 56.9773 155.418 56.3899 155.784 55.891C156.151 55.3921 156.615 54.9984 157.171 54.7085C157.732 54.4186 158.366 54.2737 159.079 54.2737C160.037 54.2737 160.807 54.5697 161.395 55.1647C161.983 55.7582 162.278 56.5455 162.278 57.5251C162.278 58.3413 162.087 59.1286 161.705 59.89C161.321 60.6544 160.801 61.2403 160.144 61.6522C159.487 62.0626 158.745 62.2686 157.914 62.2686C157.196 62.2686 156.591 62.1038 156.102 61.7773C155.615 61.4508 155.268 61.0465 155.065 60.5644C154.862 60.0807 154.76 59.5925 154.76 59.1012ZM156.334 59.0706C156.334 59.6016 156.496 60.0471 156.819 60.4041C157.142 60.7627 157.565 60.9427 158.092 60.9427C158.52 60.9427 158.932 60.8008 159.327 60.5186C159.721 60.2348 160.047 59.8061 160.306 59.2308C160.562 58.6556 160.692 58.0972 160.692 57.551C160.692 56.9422 160.529 56.4647 160.203 56.1183C159.876 55.7704 159.461 55.5996 158.955 55.5996C158.181 55.5996 157.55 55.9612 157.063 56.6844C156.577 57.4106 156.334 58.204 156.334 59.0706Z" fill="black"/>
<path d="M141.083 62.1283H139.496L141.113 54.4141H144.539C145.129 54.4141 145.589 54.4751 145.917 54.5956C146.244 54.7177 146.508 54.9374 146.711 55.2609C146.913 55.5843 147.014 55.9734 147.014 56.4342C147.014 57.0918 146.817 57.6319 146.424 58.0576C146.032 58.4848 145.438 58.7487 144.64 58.8494C144.843 59.0325 145.034 59.2721 145.215 59.5711C145.569 60.1738 145.965 61.0267 146.398 62.1283H144.695C144.558 61.6934 144.289 61.016 143.887 60.096C143.67 59.597 143.438 59.2629 143.191 59.092C143.041 58.9883 142.777 58.9394 142.401 58.9394H141.752L141.083 62.1283ZM141.993 57.786H142.836C143.69 57.786 144.255 57.7356 144.535 57.6334C144.814 57.5312 145.033 57.371 145.192 57.1513C145.349 56.9346 145.428 56.7057 145.428 56.4662C145.428 56.1839 145.315 55.9734 145.086 55.833C144.946 55.7476 144.642 55.7064 144.176 55.7064H142.429L141.993 57.786Z" fill="black"/>
<path d="M128.013 58.0011H131.486L130.794 61.3272C130.385 61.5897 129.884 61.8124 129.289 61.9955C128.695 62.1771 128.092 62.2686 127.475 62.2686C126.517 62.2686 125.784 62.052 125.272 61.6202C124.576 61.0282 124.228 60.1722 124.228 59.0523C124.228 58.3001 124.376 57.5785 124.675 56.8903C125.034 56.0603 125.543 55.4165 126.204 54.9603C126.864 54.5025 127.64 54.2737 128.533 54.2737C129.427 54.2737 130.143 54.4797 130.682 54.8931C131.222 55.3081 131.579 55.9093 131.755 56.7012L130.278 56.8705C130.148 56.4357 129.937 56.1076 129.647 55.8864C129.358 55.6652 128.993 55.5553 128.553 55.5553C128.04 55.5553 127.57 55.6911 127.14 55.9581C126.711 56.2251 126.375 56.6386 126.132 57.1985C125.889 57.757 125.769 58.3688 125.769 59.031C125.769 59.6825 125.917 60.1631 126.213 60.4759C126.51 60.7871 126.943 60.9427 127.515 60.9427C127.857 60.9427 128.208 60.8939 128.569 60.7993C128.927 60.7017 129.239 60.5872 129.499 60.4545L129.74 59.2949H127.742L128.013 58.0011Z" fill="black"/>
</g>
<defs>
<clipPath id="clip0_203_762">
<rect width="230" height="66" fill="white" transform="translate(0.352295)"/>
</clipPath>
</defs>
</svg>
