<svg width="338" height="79" viewBox="0 0 338 79" fill="none" xmlns="http://www.w3.org/2000/svg">
<path d="M82 44V21H90V24C91.0225 22.6458 92.7311 21.6772 94 21C95.2693 20.3585 96.3429 20 98 20C99.4809 20 100.907 20.3585 102 21C103.093 21.6415 104.119 22.6104 105 24C106.093 22.6101 107.696 21.6416 109 21C110.34 20.3585 111.343 20 113 20C115.679 20 117.519 20.5745 119 22C120.481 23.3899 122 25.4696 122 28V44H113V32C113 30.5743 112.494 29.6416 112 29C111.542 28.3228 110.093 28 109 28C107.907 28 107.529 28.3228 107 29C106.471 29.677 106 30.5391 106 32V44H97V32C97 30.4319 97.4935 29.7127 97 29C96.5063 28.3228 95.1279 28 94 28C92.9776 28 92.5283 28.2873 92 29C91.4711 29.6772 91 30.6817 91 32V44H82ZM134 30H142C141.894 28.5743 141.67 27.7127 141 27C140.295 26.2871 139.269 26 138 26C136.801 26 135.705 26.2515 135 27C134.295 27.784 134.071 28.646 134 30ZM142 37H150C149.365 39.5301 148.15 41.7169 146 43C143.849 44.2831 141.49 45 138 45C134.052 45 130.327 44.2092 128 42C125.708 39.7903 125 36.7417 125 33C125 29.1155 126.638 26.2806 129 24C131.362 21.7547 133.946 20 138 20C142.089 20 145.673 21.5414 148 24C150.292 26.4588 151 29.6167 151 34V35H134C134.035 36.4612 134.26 37.216 135 38C135.74 38.8198 136.696 39 138 39C138.881 39 140.401 39.3209 141 39C141.599 38.6793 141.789 37.6059 142 37ZM179 44H171V41C170.013 42.2473 169.269 43.3946 168 44C166.766 44.6059 165.551 45 164 45C161.039 45 158.798 44.2449 157 42C155.167 39.7547 154 36.7061 154 33C154 29.3294 155.167 26.2805 157 24C158.833 21.719 161.145 20 164 20C165.375 20 165.907 20.4654 167 21C168.128 21.4989 169.084 21.9669 170 23V13H179V44ZM167 38C168.163 38 168.33 37.9266 169 37C169.67 36.0376 170 34.6746 170 33C170 31.1823 170.599 29.8909 170 29C169.365 28.1447 168.269 27 167 27C165.731 27 164.599 28.1447 164 29C163.401 29.8909 163 31.1827 163 33C163 34.7107 163.365 36.0734 164 37C164.67 37.9266 165.837 38 167 38ZM184 19V12H194V19H184ZM184 44V21H194V44H184ZM214 34C213.119 34.3565 212.445 34.608 211 35C208.708 35.6059 207 36.0024 207 37C207 37.6772 207.542 38.6078 208 39C208.458 39.3563 209.189 39 210 39C211.516 39 212.33 38.7127 213 38C213.705 37.2871 214 36.5322 214 35C214 34.6793 214 34.1781 214 34C214.035 34.1426 214 33.8574 214 34ZM215 44V42C213.837 43.0335 212.34 43.501 211 44C209.66 44.4989 207.692 45 206 45C203.391 45 201.41 44.3186 200 43C198.59 41.7169 198 40.3166 198 38C198 35.6834 198.59 34.1048 200 33C201.375 31.9308 204.158 30.4985 208 30C208.494 29.9287 209.154 30.0713 210 30C212.855 29.6793 214 29.2116 214 28C214 27.3584 214.529 26.3207 214 26C213.471 25.7148 212.128 26 211 26C210.048 26 209.529 25.6435 209 26C208.507 26.392 208.106 27.2158 208 28H199C199.035 25.3986 199.92 23.3188 202 22C204.045 20.6458 206.981 20 211 20C212.869 20 215.414 20.6435 217 21C218.587 21.3563 219.119 21.3941 220 22C221.093 22.7485 222.577 24.0737 223 25C223.423 25.9266 223 27.2541 223 29V42C223 42.4276 223.824 42.6437 224 43C224.176 43.3209 223.647 43.7861 224 44H215ZM237 33C237 34.6749 237.33 36.0376 238 37C238.67 37.9266 239.837 38 241 38C242.163 38 243.33 37.9266 244 37C244.635 36.0734 245 34.7103 245 33C245 31.1823 244.599 29.8911 244 29C243.401 28.1447 242.269 27 241 27C239.731 27 238.599 28.1447 238 29C237.365 29.8911 237 31.1827 237 33ZM229 44V13H237V23C237.917 22.0021 238.907 21.499 240 21C241.128 20.4654 242.731 20 244 20C247.032 20 249.167 21.7551 251 24C252.798 26.2453 254 29.2581 254 33C254 36.7061 252.798 39.7551 251 42C249.202 44.2453 246.961 45 244 45C242.449 45 241.234 44.6059 240 44C238.766 43.3943 237.987 42.247 237 41V44H229ZM273 34C272.119 34.3565 271.445 34.608 270 35C267.708 35.6059 266 36.0024 266 37C266 37.6772 266.577 38.6078 267 39C267.458 39.3563 268.154 39 269 39C270.516 39 271.295 38.7127 272 38C272.705 37.2871 273 36.5322 273 35C273 34.6793 273 34.1781 273 34C273 34.1426 273 33.8574 273 34ZM274 44L273 42C271.836 43.0335 271.375 43.501 270 44C268.66 44.4989 266.692 45 265 45C262.427 45 260.41 44.3186 259 43C257.59 41.7169 257 40.3166 257 38C257 35.6834 257.625 34.1048 259 33C260.41 31.9308 263.122 30.4985 267 30C267.494 29.9287 268.154 30.0713 269 30C271.891 29.6793 273 29.2116 273 28C273 27.3584 272.529 26.3207 272 26C271.471 25.7148 271.163 26 270 26C269.083 26 268.494 25.6435 268 26C267.471 26.392 267.071 27.2158 267 28H258C258.071 25.3986 258.92 23.3188 261 22C263.045 20.6458 266.016 20 270 20C271.904 20 274.413 20.6435 276 21C277.587 21.3563 278.119 21.3941 279 22C280.058 22.7485 280.577 24.0737 281 25C281.458 25.9266 282 27.2541 282 29V42C282 42.4276 281.824 42.6437 282 43C282.176 43.3209 282.683 43.7861 283 44H274ZM286 44V38L296 28H286V21H307V27L297 37H307V44H286ZM326 34C325.119 34.3565 324.445 34.608 323 35C320.744 35.6059 319 36.0024 319 37C319 37.6772 319.542 38.6078 320 39C320.423 39.3563 321.154 39 322 39C323.516 39 324.295 38.7127 325 38C325.705 37.2871 326 36.5322 326 35C326 34.6793 326 34.1781 326 34C326 34.1426 326 33.8574 326 34ZM327 44L326 42C324.837 43.0335 323.375 43.501 322 44C320.66 44.4989 319.692 45 318 45C315.427 45 313.41 44.3186 312 43C310.59 41.7169 310 40.3166 310 38C310 35.6834 310.625 34.1048 312 33C313.41 31.9308 316.122 30.4985 320 30C320.494 29.9287 321.189 30.0713 322 30C324.891 29.6793 326 29.2116 326 28C326 27.3584 325.529 26.3207 325 26C324.471 25.7148 324.163 26 323 26C322.083 26 321.494 25.6435 321 26C320.507 26.392 320.071 27.2158 320 28H311C311.071 25.3986 311.92 23.3188 314 22C316.08 20.6458 319.016 20 323 20C324.904 20 326.413 20.6435 328 21C329.622 21.3563 331.119 21.3941 332 22C333.093 22.7485 333.577 24.0737 334 25C334.458 25.9266 335 27.2541 335 29V42C335 42.4276 334.824 42.6437 335 43C335.176 43.3209 335.683 43.7861 336 44H327Z" fill="#E5097F"/>
<path d="M9 1H54C56.172 1 58.5637 1.55052 60 3C61.436 4.44931 62 6.80762 62 9V55C62 57.2104 61.436 58.5324 60 60C58.8151 61.1779 56.7412 61.7464 55 62V74V79L52 76L39 63H9C6.80981 63 4.4543 61.4495 3 60C1.56403 58.5325 1 57.2104 1 55V9C1 6.80762 1.56403 4.44948 3 3C4.45413 1.55052 6.80981 1 9 1ZM54 5H9C7.83296 5 6.77203 5.23912 6 6C5.22797 6.77903 5 7.84028 5 9V55C5 56.1777 5.22814 57.2208 6 58C6.77203 58.779 7.83296 59 9 59H40H41L51 70V61V59H53H54C55.1491 59 56.246 58.7789 57 58C57.772 57.2208 58 56.1777 58 55V9C58 7.84028 57.7719 6.77903 57 6C56.246 5.23895 55.1491 5 54 5Z" fill="#E5097F"/>
<path d="M55 5H9C7.82355 5 6.77826 5.24113 6 6C5.22174 6.77697 5 7.84334 5 9V55C5 56.1746 5.22192 57.2229 6 58C6.77826 58.777 7.82355 59 9 59H40H41H42L52 70V61V59H54H55C56.1583 59 57.2399 58.7768 58 58C58.7783 57.2229 59 56.1746 59 55V9C59 7.84334 58.7781 6.77697 58 6C57.2399 5.24096 56.1583 5 55 5Z" fill="#B0CB1F"/>
<path d="M11 44V20H20V23C21.0399 21.5715 21.6734 20.6777 23 20C24.3086 19.3041 26.2969 19 28 19C29.5596 19 30.8706 19.3223 32 20C33.1295 20.6594 34.1036 21.5346 35 23C36.1475 21.5348 37.6375 20.6777 39 20C40.3803 19.3223 41.2789 19 43 19C45.7967 19 48.4582 19.5166 50 21C51.5416 22.4652 52 24.3445 52 27V44H43V31C43 29.4799 42.5021 28.6777 42 28C41.4979 27.3039 40.1295 27 39 27C37.8527 27 37.5558 27.2856 37 28C36.462 28.7143 36 29.4797 36 31V44H27V31C27 29.3516 26.5021 28.7143 26 28C25.4801 27.2672 25.1653 27 24 27C22.9421 27 21.5378 27.2672 21 28C20.4442 28.7326 20 29.5897 20 31V44H11Z" fill="#E5097F"/>
</svg>
