<svg width="337" height="68" viewBox="0 0 337 68" fill="none" xmlns="http://www.w3.org/2000/svg">
<path d="M333.301 30.7135L336.015 27.5513L317.095 63.5678L310 63.5678L333.301 30.7135Z" fill="#E5097F"/>
<path d="M0 32C0 14.3269 14.3269 0 32 0H166V64H32C14.3269 64 0 49.6731 0 32Z" fill="#E5097F"/>
<path d="M114.335 20.87H111.695V10.89H114.475V16.77L118.995 10.89H121.635V20.87H118.855V14.99L114.335 20.87Z" fill="#EDF0EC"/>
<path d="M106.868 20.87H104.048V13.25H100.928V10.89H110.028V13.25H106.868V20.87Z" fill="#EDF0EC"/>
<path d="M96.4555 21.13C94.9755 21.13 93.6955 20.65 92.6355 19.69C91.5755 18.71 91.0355 17.43 91.0355 15.85C91.0355 14.27 91.5755 13.01 92.6355 12.07C93.7155 11.11 94.9955 10.63 96.4955 10.63C97.5955 10.63 98.5755 10.85 99.4555 11.29V13.69C98.5955 13.29 97.7355 13.09 96.9155 13.09C96.0355 13.09 95.2955 13.35 94.6955 13.87C94.1155 14.37 93.8155 15.05 93.8155 15.87C93.8155 16.69 94.1155 17.37 94.7155 17.89C95.3155 18.41 96.0555 18.67 96.9155 18.67C97.9355 18.67 98.8355 18.45 99.6155 17.99V20.39C98.6755 20.89 97.6355 21.13 96.4555 21.13Z" fill="#EDF0EC"/>
<path d="M82.0955 17.87C82.6155 18.41 83.2755 18.67 84.0755 18.67C84.8755 18.67 85.5355 18.41 86.0555 17.87C86.5755 17.33 86.8355 16.67 86.8355 15.87C86.8355 15.07 86.5755 14.41 86.0555 13.89C85.5355 13.35 84.8755 13.09 84.0755 13.09C83.2755 13.09 82.6155 13.35 82.0955 13.89C81.5755 14.41 81.3155 15.07 81.3155 15.87C81.3155 16.67 81.5755 17.33 82.0955 17.87ZM78.5355 15.87C78.5355 14.39 79.0555 13.15 80.0955 12.15C81.1355 11.13 82.4555 10.63 84.0755 10.63C85.6955 10.63 87.0155 11.13 88.0555 12.15C89.0955 13.17 89.6155 14.41 89.6155 15.87C89.6155 17.37 89.0955 18.61 88.0555 19.63C87.0155 20.63 85.6955 21.13 84.0755 21.13C82.4555 21.13 81.1355 20.63 80.0955 19.63C79.0555 18.61 78.5355 17.37 78.5355 15.87Z" fill="#EDF0EC"/>
<path d="M73.3762 20.87H67.4962V10.89H73.1362C75.2162 10.89 76.3362 11.99 76.3362 13.45C76.3362 14.45 75.9362 15.15 75.1162 15.57C76.3762 16.01 77.0162 16.87 77.0162 18.13C77.0162 19.81 75.6962 20.87 73.3762 20.87ZM70.2762 16.65V18.89H72.6762C73.6562 18.89 74.1362 18.51 74.1362 17.77C74.1362 17.03 73.6562 16.65 72.6762 16.65H70.2762ZM70.2762 12.83V14.87H72.2362C73.1362 14.87 73.5762 14.53 73.5762 13.85C73.5762 13.17 73.1362 12.83 72.2362 12.83H70.2762Z" fill="#EDF0EC"/>
<path d="M57.8962 17.87C58.4162 18.41 59.0762 18.67 59.8762 18.67C60.6762 18.67 61.3362 18.41 61.8562 17.87C62.3762 17.33 62.6362 16.67 62.6362 15.87C62.6362 15.07 62.3762 14.41 61.8562 13.89C61.3362 13.35 60.6762 13.09 59.8762 13.09C59.0762 13.09 58.4162 13.35 57.8962 13.89C57.3762 14.41 57.1162 15.07 57.1162 15.87C57.1162 16.67 57.3762 17.33 57.8962 17.87ZM54.3362 15.87C54.3362 14.39 54.8562 13.15 55.8962 12.15C56.9362 11.13 58.2562 10.63 59.8762 10.63C61.4962 10.63 62.8162 11.13 63.8562 12.15C64.8962 13.17 65.4162 14.41 65.4162 15.87C65.4162 17.37 64.8962 18.61 63.8562 19.63C62.8162 20.63 61.4962 21.13 59.8762 21.13C58.2562 21.13 56.9362 20.63 55.8962 19.63C54.8562 18.61 54.3362 17.37 54.3362 15.87Z" fill="#EDF0EC"/>
<path d="M42.88 20.87H40V6.87H42.88V12.11H49.2V6.87H52.06V20.87H49.2V14.73H42.88V20.87Z" fill="#EDF0EC"/>
<path d="M138.507 0H181.278L166.334 28H125.278L138.507 0Z" fill="#E5097F"/>
<path d="M186.449 4H217L206.326 24H177L186.449 4Z" fill="#E5097F"/>
<path d="M221.449 4H252L241.326 24H212L221.449 4Z" fill="#E5097F"/>
<path d="M256.449 4H287L276.326 24H247L256.449 4Z" fill="#E5097F"/>
<path d="M291.449 4H322L311.326 24H282L291.449 4Z" fill="#E5097F"/>
<path d="M88.5329 27.795L334 27.795L315.091 63.795H63L88.5329 27.795Z" fill="#919EA3"/>
</svg>
