<svg width="79" height="66" viewBox="0 0 79 66" fill="none" xmlns="http://www.w3.org/2000/svg">
<path d="M23.63 27.41C23.632 32.83 25.2414 38.1278 28.2547 42.633C31.268 47.1382 35.5497 50.6486 40.5584 52.72C45.567 54.7914 51.0774 55.3309 56.3926 54.2701C61.7079 53.2093 66.5891 50.5959 70.4189 46.7605C74.2486 42.9252 76.8549 38.0402 77.9079 32.7234C78.9609 27.4066 78.4135 21.8969 76.3347 16.8913C74.256 11.8858 70.7394 7.60913 66.2297 4.60243C61.7201 1.59573 56.4201 -0.0059481 51 -1.40887e-05C47.4031 0.00261139 43.8419 0.713674 40.5198 2.09258C37.1977 3.47148 34.1798 5.49123 31.6382 8.03648C29.0967 10.5817 27.0813 13.6027 25.7073 16.9268C24.3332 20.2509 23.6274 23.8131 23.63 27.41Z" fill="url(#paint0_radial_1_452)"/>
<path d="M31.8901 32.26C34.4601 32.03 36.3 29.1 36 25.73C35.7 22.36 33.3601 19.82 30.7901 20.05C28.2201 20.28 26.37 23.21 26.68 26.57C26.99 29.93 29.3101 32.49 31.8901 32.26Z" fill="#B0B1B6"/>
<path d="M29.66 34.71C28.11 35.52 27.72 37.81 28.78 39.83C29.84 41.85 31.95 42.83 33.5 42.02C35.05 41.21 35.42 38.92 34.37 36.9C33.32 34.88 31.2 33.9 29.66 34.71Z" fill="#B0B1B6"/>
<path d="M35.76 32.27C35.2437 32.3843 34.7762 32.6575 34.4232 33.0511C34.0702 33.4448 33.8495 33.9391 33.7919 34.4648C33.7343 34.9904 33.8429 35.5208 34.1023 35.9815C34.3618 36.4423 34.759 36.8101 35.2383 37.0334C35.7176 37.2568 36.2548 37.3243 36.7744 37.2266C37.2941 37.1289 37.77 36.8708 38.1355 36.4886C38.5009 36.1065 38.7374 35.6194 38.8117 35.0959C38.886 34.5725 38.7945 34.0388 38.55 33.57C38.3452 33.0331 37.9393 32.5971 37.4185 32.3544C36.8976 32.1117 36.3028 32.0815 35.76 32.27Z" fill="#B0B1B6"/>
<path d="M76.33 28.4C75.85 25.05 73.4 22.63 70.84 22.99C68.28 23.35 66.59 26.36 67.06 29.71C67.53 33.06 69.99 35.48 72.55 35.12C75.11 34.76 76.8 31.75 76.33 28.4Z" fill="#B0B1B6"/>
<path d="M72.94 20.43C74.44 19.54 74.7099 17.23 73.5499 15.27C72.3899 13.31 70.24 12.44 68.74 13.32C67.24 14.2 66.97 16.52 68.13 18.48C69.29 20.44 71.44 21.31 72.94 20.43Z" fill="#B0B1B6"/>
<path d="M67.32 20.12C67.0614 19.8701 66.7381 19.6974 66.3866 19.6215C66.0351 19.5455 65.6694 19.5693 65.3307 19.6901C64.992 19.8109 64.6938 20.0239 64.4696 20.3051C64.2455 20.5863 64.1044 20.9246 64.0623 21.2817C64.0201 21.6388 64.0786 22.0006 64.231 22.3263C64.3835 22.652 64.624 22.9286 64.9253 23.1249C65.2266 23.3213 65.5767 23.4295 65.9362 23.4375C66.2957 23.4454 66.6503 23.3528 66.96 23.17C67.4059 22.8089 67.693 22.288 67.7603 21.7182C67.8275 21.1484 67.6696 20.5749 67.32 20.12Z" fill="#B0B1B6"/>
<path style="mix-blend-mode:overlay" d="M55.2001 24.59C48.2001 18.93 45.5001 10.32 49.1201 5.34C52.7401 0.359997 61.3201 0.929986 68.3001 6.57999C75.2801 12.23 78.0001 20.86 74.3801 25.83C70.7601 30.8 62.1701 30.25 55.2001 24.59Z" fill="url(#paint1_radial_1_452)"/>
<path style="mix-blend-mode:overlay" opacity="0.4" d="M26.82 33.46C27.74 30.46 32.44 31.69 37.31 36.27C42.18 40.85 45.39 47.01 44.47 50.05C43.55 53.09 38.85 51.82 33.97 47.24C29.09 42.66 25.9 36.49 26.82 33.46Z" fill="url(#paint2_radial_1_452)"/>
<path d="M23.91 17.67C29.2175 17.673 34.3702 19.4589 38.5411 22.7412C42.712 26.0235 45.6593 30.6119 46.91 35.77C48.9955 34.7603 51.2818 34.234 53.5988 34.23C55.9158 34.2261 58.2039 34.7447 60.2928 35.7473C62.3817 36.7499 64.2177 38.2106 65.664 40.0208C67.1103 41.831 68.1299 43.944 68.6467 46.2027C69.1635 48.4613 69.1644 50.8074 68.6492 53.0665C68.134 55.3255 67.116 57.4393 65.671 59.2505C64.2259 61.0617 62.3911 62.5238 60.3029 63.5279C58.2147 64.532 55.927 65.0522 53.61 65.05H23.91C17.627 65.05 11.6013 62.5541 7.1586 58.1114C2.71586 53.6686 0.219971 47.643 0.219971 41.36C0.219971 35.077 2.71586 29.0514 7.1586 24.6086C11.6013 20.1659 17.627 17.67 23.91 17.67Z" fill="url(#paint3_radial_1_452)"/>
<path style="mix-blend-mode:overlay" opacity="0.5" d="M20.87 40.31C27.04 35.31 29.45 27.68 26.25 23.31C23.05 18.94 15.46 19.41 9.24999 24.41C3.03999 29.41 0.66998 37.04 3.86998 41.41C7.06998 45.78 14.71 45.31 20.87 40.31Z" fill="url(#paint4_radial_1_452)"/>
<path style="mix-blend-mode:overlay" opacity="0.3" d="M51.92 46.81C55.31 44.06 56.63 39.87 54.92 37.45C53.21 35.03 48.99 35.3 45.59 38.05C42.19 40.8 40.88 45 42.59 47.41C44.3 49.82 48.53 49.56 51.92 46.81Z" fill="url(#paint5_radial_1_452)"/>
<path style="mix-blend-mode:overlay" opacity="0.2" d="M59.4401 52.8C63.1701 49.03 67.0201 47.55 68.0501 49.5C69.0801 51.45 66.8801 56.09 63.1501 59.87C59.4201 63.65 55.5701 65.12 54.5401 63.16C53.5101 61.2 55.7101 56.57 59.4401 52.8Z" fill="url(#paint6_radial_1_452)"/>
<defs>
<radialGradient id="paint0_radial_1_452" cx="0" cy="0" r="1" gradientUnits="userSpaceOnUse" gradientTransform="translate(57.29 10.24) rotate(180) scale(52 52)">
<stop stop-color="#FCFCFC"/>
<stop offset="0.16" stop-color="#F1EDF5"/>
<stop offset="1" stop-color="#9FA1A6"/>
</radialGradient>
<radialGradient id="paint1_radial_1_452" cx="0" cy="0" r="1" gradientUnits="userSpaceOnUse" gradientTransform="translate(62.9615 6.00419) rotate(126.146) scale(11.1223 16.2516)">
<stop stop-color="white"/>
<stop offset="0.1" stop-color="white" stop-opacity="0.85"/>
<stop offset="0.29" stop-color="white" stop-opacity="0.59"/>
<stop offset="0.47" stop-color="white" stop-opacity="0.38"/>
<stop offset="0.63" stop-color="white" stop-opacity="0.22"/>
<stop offset="0.78" stop-color="white" stop-opacity="0.1"/>
<stop offset="0.91" stop-color="white" stop-opacity="0.03"/>
<stop offset="1" stop-color="white" stop-opacity="0"/>
</radialGradient>
<radialGradient id="paint2_radial_1_452" cx="0" cy="0" r="1" gradientUnits="userSpaceOnUse" gradientTransform="translate(24.9232 34.6393) rotate(-136.766) scale(12.0924 5.13958)">
<stop stop-color="white"/>
<stop offset="0.1" stop-color="white" stop-opacity="0.85"/>
<stop offset="0.29" stop-color="white" stop-opacity="0.59"/>
<stop offset="0.47" stop-color="white" stop-opacity="0.38"/>
<stop offset="0.63" stop-color="white" stop-opacity="0.22"/>
<stop offset="0.78" stop-color="white" stop-opacity="0.1"/>
<stop offset="0.91" stop-color="white" stop-opacity="0.03"/>
<stop offset="1" stop-color="white" stop-opacity="0"/>
</radialGradient>
<radialGradient id="paint3_radial_1_452" cx="0" cy="0" r="1" gradientUnits="userSpaceOnUse" gradientTransform="translate(15.03 24.17) rotate(180) scale(58.83 58.83)">
<stop stop-color="#BAD0D6"/>
<stop offset="0.2" stop-color="#9BBAC2"/>
<stop offset="1" stop-color="#5D8BB8"/>
</radialGradient>
<radialGradient id="paint4_radial_1_452" cx="0" cy="0" r="1" gradientUnits="userSpaceOnUse" gradientTransform="translate(12.7232 23.4558) rotate(53.8543) scale(9.82639 14.358)">
<stop stop-color="white"/>
<stop offset="0.1" stop-color="white" stop-opacity="0.85"/>
<stop offset="0.29" stop-color="white" stop-opacity="0.59"/>
<stop offset="0.47" stop-color="white" stop-opacity="0.38"/>
<stop offset="0.63" stop-color="white" stop-opacity="0.22"/>
<stop offset="0.78" stop-color="white" stop-opacity="0.1"/>
<stop offset="0.91" stop-color="white" stop-opacity="0.03"/>
<stop offset="1" stop-color="white" stop-opacity="0"/>
</radialGradient>
<radialGradient id="paint5_radial_1_452" cx="0" cy="0" r="1" gradientUnits="userSpaceOnUse" gradientTransform="translate(46.3988 33.5046) rotate(53.8543) scale(5.39739 7.88652)">
<stop stop-color="white"/>
<stop offset="0.1" stop-color="white" stop-opacity="0.85"/>
<stop offset="0.29" stop-color="white" stop-opacity="0.59"/>
<stop offset="0.47" stop-color="white" stop-opacity="0.38"/>
<stop offset="0.63" stop-color="white" stop-opacity="0.22"/>
<stop offset="0.78" stop-color="white" stop-opacity="0.1"/>
<stop offset="0.91" stop-color="white" stop-opacity="0.03"/>
<stop offset="1" stop-color="white" stop-opacity="0"/>
</radialGradient>
<radialGradient id="paint6_radial_1_452" cx="0" cy="0" r="1" gradientUnits="userSpaceOnUse" gradientTransform="translate(53.1786 52.9011) rotate(-147.061) scale(3.35858 9.11937)">
<stop stop-color="white"/>
<stop offset="0.1" stop-color="white" stop-opacity="0.85"/>
<stop offset="0.29" stop-color="white" stop-opacity="0.59"/>
<stop offset="0.47" stop-color="white" stop-opacity="0.38"/>
<stop offset="0.63" stop-color="white" stop-opacity="0.22"/>
<stop offset="0.78" stop-color="white" stop-opacity="0.1"/>
<stop offset="0.91" stop-color="white" stop-opacity="0.03"/>
<stop offset="1" stop-color="white" stop-opacity="0"/>
</radialGradient>
</defs>
</svg>
