<svg width="80" height="70" viewBox="0 0 80 70" fill="none" xmlns="http://www.w3.org/2000/svg">
<path d="M24.26 27.41C24.264 32.8264 25.8737 38.12 28.8858 42.6216C31.8978 47.1232 36.177 50.6308 41.1822 52.7008C46.1874 54.7708 51.694 55.3104 57.0058 54.2513C62.3176 53.1922 67.1962 50.5819 71.0247 46.7506C74.8533 42.9192 77.4599 38.0388 78.5151 32.7262C79.5704 27.4136 79.0268 21.9074 76.9531 16.9037C74.8795 11.9 71.3688 7.62342 66.865 4.61465C62.3612 1.60589 57.0664 1.44396e-06 51.65 0C48.0514 -9.59352e-07 44.4881 0.709126 41.1637 2.08685C37.8393 3.46458 34.8189 5.4839 32.2753 8.02942C29.7316 10.5749 27.7145 13.5967 26.3392 16.9221C24.9639 20.2476 24.2574 23.8114 24.26 27.41Z" fill="url(#paint0_radial_1_451)"/>
<path d="M32.51 32.26C35.08 32.03 36.92 29.1 36.62 25.73C36.32 22.36 33.99 19.82 31.41 20.05C28.83 20.28 27 23.21 27.3 26.57C27.6 29.93 29.93 32.49 32.51 32.26Z" fill="#B0B1B6"/>
<path d="M30.28 34.71C28.73 35.52 28.35 37.81 29.41 39.83C30.47 41.85 32.57 42.83 34.12 42.02C35.67 41.21 36.05 38.92 34.99 36.9C33.93 34.88 31.82 33.9 30.28 34.71Z" fill="#B0B1B6"/>
<path d="M36.3901 32.27C35.8729 32.3825 35.4041 32.6544 35.0495 33.0473C34.695 33.4403 34.4726 33.9345 34.4137 34.4605C34.3548 34.9864 34.4622 35.5176 34.721 35.9792C34.9798 36.4409 35.3768 36.8098 35.8563 37.034C36.3357 37.2582 36.8733 37.3263 37.3935 37.2289C37.9137 37.1316 38.3903 36.8735 38.7561 36.4911C39.122 36.1086 39.3587 35.6211 39.4329 35.0971C39.5072 34.5731 39.4153 34.039 39.1701 33.57C38.9653 33.0355 38.561 32.6012 38.0425 32.3588C37.524 32.1163 36.9316 32.0845 36.3901 32.27Z" fill="#B0B1B6"/>
<path d="M77.0001 28.4C76.5301 25.05 74.0701 22.63 71.5101 22.99C68.9501 23.35 67.2601 26.36 67.7301 29.71C68.2001 33.06 70.67 35.48 73.22 35.12C75.77 34.76 77.4201 31.75 77.0001 28.4Z" fill="#B0B1B6"/>
<path d="M73.56 20.43C75.06 19.54 75.3399 17.23 74.1699 15.27C72.9999 13.31 70.8599 12.44 69.3599 13.32C67.8599 14.2 67.59 16.52 68.75 18.48C69.91 20.44 72.06 21.31 73.56 20.43Z" fill="#B0B1B6"/>
<path d="M68.0001 20.12C67.7415 19.8701 67.4182 19.6974 67.0667 19.6215C66.7152 19.5455 66.3495 19.5693 66.0107 19.6901C65.672 19.8109 65.3738 20.0239 65.1497 20.3051C64.9255 20.5863 64.7845 20.9246 64.7423 21.2817C64.7002 21.6388 64.7586 22.0006 64.9111 22.3263C65.0636 22.652 65.304 22.9286 65.6053 23.1249C65.9066 23.3213 66.2568 23.4295 66.6163 23.4375C66.9758 23.4454 67.3304 23.3528 67.6401 23.17C68.0816 22.806 68.3655 22.2856 68.4326 21.7173C68.4996 21.149 68.3447 20.5768 68.0001 20.12Z" fill="#B0B1B6"/>
<path style="mix-blend-mode:overlay" d="M55.82 24.59C48.82 18.93 46.1199 10.32 49.7399 5.34C53.3599 0.359997 61.9499 0.929986 68.9299 6.57999C75.9099 12.23 78.62 20.86 75.01 25.83C71.4 30.8 62.8 30.25 55.82 24.59Z" fill="url(#paint1_radial_1_451)"/>
<path style="mix-blend-mode:overlay" opacity="0.4" d="M27.44 33.46C28.36 30.46 33.06 31.69 37.94 36.27C42.82 40.85 46 47 45.09 50.05C44.18 53.1 39.47 51.82 34.59 47.24C29.71 42.66 26.52 36.49 27.44 33.46Z" fill="url(#paint2_radial_1_451)"/>
<path d="M24.53 17.67C29.8366 17.6765 34.9876 19.4637 39.1577 22.7455C43.3279 26.0272 46.2761 30.6136 47.53 35.77C49.6155 34.7603 51.9017 34.234 54.2188 34.23C56.5358 34.2261 58.8239 34.7447 60.9128 35.7473C63.0017 36.7499 64.8376 38.2106 66.284 40.0208C67.7303 41.831 68.7499 43.944 69.2667 46.2027C69.7835 48.4613 69.7844 50.8074 69.2692 53.0665C68.754 55.3255 67.736 57.4393 66.291 59.2505C64.846 61.0617 63.0111 62.5238 60.9229 63.5279C58.8347 64.532 56.547 65.0522 54.2299 65.05H24.53C18.247 65.05 12.2213 62.5541 7.77859 58.1114C3.33586 53.6686 0.839966 47.643 0.839966 41.36C0.839966 35.077 3.33586 29.0514 7.77859 24.6086C12.2213 20.1659 18.247 17.67 24.53 17.67Z" fill="url(#paint3_radial_1_451)"/>
<path style="mix-blend-mode:overlay" opacity="0.5" d="M21.5 40.31C27.67 35.31 30.08 27.68 26.88 23.31C23.68 18.94 16.08 19.41 9.88004 24.41C3.68004 29.41 1.30004 37.04 4.50004 41.41C7.70004 45.78 15.33 45.31 21.5 40.31Z" fill="url(#paint4_radial_1_451)"/>
<path style="mix-blend-mode:overlay" opacity="0.3" d="M52.5401 46.81C55.9301 44.06 57.2601 39.87 55.5401 37.45C53.8201 35.03 49.6101 35.3 46.2101 38.05C42.8101 40.8 41.5001 45 43.2601 47.41C45.0201 49.82 49.1501 49.56 52.5401 46.81Z" fill="url(#paint5_radial_1_451)"/>
<path style="mix-blend-mode:overlay" opacity="0.2" d="M60.0699 52.8C63.7999 49.03 67.6499 47.55 68.6699 49.5C69.6899 51.45 67.4999 56.09 63.7699 59.87C60.0399 63.65 56.1899 65.12 55.1699 63.16C54.1499 61.2 56.3399 56.57 60.0699 52.8Z" fill="url(#paint6_radial_1_451)"/>
<path d="M24.61 67.84C24.065 68.7842 23.1672 69.4732 22.1142 69.7554C21.0612 70.0376 19.9392 69.89 18.995 69.345C18.0508 68.8 17.3619 67.9022 17.0796 66.8492C16.7974 65.7962 16.945 64.6742 17.49 63.73C18.62 61.73 25.64 57.82 25.64 57.82C25.64 57.82 25.74 65.88 24.61 67.84Z" fill="url(#paint7_radial_1_451)"/>
<path style="mix-blend-mode:overlay" d="M17.61 67.16C16.97 65.49 17.36 63.74 18.47 63.25C19.58 62.76 21.01 63.7 21.65 65.36C22.29 67.02 21.89 68.78 20.78 69.28C19.67 69.78 18.24 68.82 17.61 67.16Z" fill="url(#paint8_radial_1_451)"/>
<path d="M41.9 67.84C41.355 68.7842 40.4573 69.4732 39.4043 69.7554C38.3512 70.0376 37.2292 69.89 36.2851 69.345C35.3409 68.8 34.6519 67.9022 34.3696 66.8492C34.0874 65.7962 34.235 64.6742 34.78 63.73C35.92 61.73 42.9401 57.82 42.9401 57.82C42.9401 57.82 43 65.88 41.9 67.84Z" fill="url(#paint9_radial_1_451)"/>
<path style="mix-blend-mode:overlay" d="M34.9 67.16C34.27 65.49 34.65 63.74 35.77 63.25C36.89 62.76 38.3 63.7 38.94 65.36C39.58 67.02 39.19 68.78 38.08 69.28C36.97 69.78 35.54 68.82 34.9 67.16Z" fill="url(#paint10_radial_1_451)"/>
<path d="M59.2001 67.84C58.6551 68.7842 57.7573 69.4732 56.7043 69.7554C55.6513 70.0376 54.5293 69.89 53.5851 69.345C52.6409 68.8 51.9519 67.9022 51.6697 66.8492C51.3875 65.7962 51.5351 64.6742 52.0801 63.73C53.2101 61.73 60.2301 57.82 60.2301 57.82C60.2301 57.82 60.3301 65.88 59.2001 67.84Z" fill="url(#paint11_radial_1_451)"/>
<path style="mix-blend-mode:overlay" d="M52.2 67.16C51.56 65.49 51.95 63.74 53.06 63.25C54.17 62.76 55.6 63.7 56.24 65.36C56.88 67.02 56.49 68.78 55.37 69.28C54.25 69.78 52.84 68.82 52.2 67.16Z" fill="url(#paint12_radial_1_451)"/>
<defs>
<radialGradient id="paint0_radial_1_451" cx="0" cy="0" r="1" gradientUnits="userSpaceOnUse" gradientTransform="translate(57.91 10.24) rotate(180) scale(52 52)">
<stop stop-color="#FCFCFC"/>
<stop offset="0.16" stop-color="#F1EDF5"/>
<stop offset="1" stop-color="#9FA1A6"/>
</radialGradient>
<radialGradient id="paint1_radial_1_451" cx="0" cy="0" r="1" gradientUnits="userSpaceOnUse" gradientTransform="translate(63.7151 6.09049) rotate(126.146) scale(11.1223 16.2516)">
<stop stop-color="white"/>
<stop offset="0.1" stop-color="white" stop-opacity="0.85"/>
<stop offset="0.29" stop-color="white" stop-opacity="0.59"/>
<stop offset="0.47" stop-color="white" stop-opacity="0.38"/>
<stop offset="0.63" stop-color="white" stop-opacity="0.22"/>
<stop offset="0.78" stop-color="white" stop-opacity="0.1"/>
<stop offset="0.91" stop-color="white" stop-opacity="0.03"/>
<stop offset="1" stop-color="white" stop-opacity="0"/>
</radialGradient>
<radialGradient id="paint2_radial_1_451" cx="0" cy="0" r="1" gradientUnits="userSpaceOnUse" gradientTransform="translate(25.1215 34.3416) rotate(-136.766) scale(12.0924 5.13959)">
<stop stop-color="white"/>
<stop offset="0.1" stop-color="white" stop-opacity="0.85"/>
<stop offset="0.29" stop-color="white" stop-opacity="0.59"/>
<stop offset="0.47" stop-color="white" stop-opacity="0.38"/>
<stop offset="0.63" stop-color="white" stop-opacity="0.22"/>
<stop offset="0.78" stop-color="white" stop-opacity="0.1"/>
<stop offset="0.91" stop-color="white" stop-opacity="0.03"/>
<stop offset="1" stop-color="white" stop-opacity="0"/>
</radialGradient>
<radialGradient id="paint3_radial_1_451" cx="0" cy="0" r="1" gradientUnits="userSpaceOnUse" gradientTransform="translate(15.65 24.17) rotate(180) scale(58.83 58.83)">
<stop stop-color="#BAD0D6"/>
<stop offset="0.2" stop-color="#9BBAC2"/>
<stop offset="1" stop-color="#5D8BB8"/>
</radialGradient>
<radialGradient id="paint4_radial_1_451" cx="0" cy="0" r="1" gradientUnits="userSpaceOnUse" gradientTransform="translate(13.4608 23.3826) rotate(53.8543) scale(9.82639 14.358)">
<stop stop-color="white"/>
<stop offset="0.1" stop-color="white" stop-opacity="0.85"/>
<stop offset="0.29" stop-color="white" stop-opacity="0.59"/>
<stop offset="0.47" stop-color="white" stop-opacity="0.38"/>
<stop offset="0.63" stop-color="white" stop-opacity="0.22"/>
<stop offset="0.78" stop-color="white" stop-opacity="0.1"/>
<stop offset="0.91" stop-color="white" stop-opacity="0.03"/>
<stop offset="1" stop-color="white" stop-opacity="0"/>
</radialGradient>
<radialGradient id="paint5_radial_1_451" cx="0" cy="0" r="1" gradientUnits="userSpaceOnUse" gradientTransform="translate(47.1365 33.4314) rotate(53.8544) scale(5.39739 7.8865)">
<stop stop-color="white"/>
<stop offset="0.1" stop-color="white" stop-opacity="0.85"/>
<stop offset="0.29" stop-color="white" stop-opacity="0.59"/>
<stop offset="0.47" stop-color="white" stop-opacity="0.38"/>
<stop offset="0.63" stop-color="white" stop-opacity="0.22"/>
<stop offset="0.78" stop-color="white" stop-opacity="0.1"/>
<stop offset="0.91" stop-color="white" stop-opacity="0.03"/>
<stop offset="1" stop-color="white" stop-opacity="0"/>
</radialGradient>
<radialGradient id="paint6_radial_1_451" cx="0" cy="0" r="1" gradientUnits="userSpaceOnUse" gradientTransform="translate(54.5057 53.1872) rotate(-147.061) scale(3.35858 9.11937)">
<stop stop-color="white"/>
<stop offset="0.1" stop-color="white" stop-opacity="0.85"/>
<stop offset="0.29" stop-color="white" stop-opacity="0.59"/>
<stop offset="0.47" stop-color="white" stop-opacity="0.38"/>
<stop offset="0.63" stop-color="white" stop-opacity="0.22"/>
<stop offset="0.78" stop-color="white" stop-opacity="0.1"/>
<stop offset="0.91" stop-color="white" stop-opacity="0.03"/>
<stop offset="1" stop-color="white" stop-opacity="0"/>
</radialGradient>
<radialGradient id="paint7_radial_1_451" cx="0" cy="0" r="1" gradientUnits="userSpaceOnUse" gradientTransform="translate(19.1102 66.9137) rotate(29.9999) scale(9.89001 9.89)">
<stop stop-color="#D4F6FF"/>
<stop offset="0.2" stop-color="#D9F7FF"/>
<stop offset="1" stop-color="#89C0F5"/>
</radialGradient>
<radialGradient id="paint8_radial_1_451" cx="0" cy="0" r="1" gradientUnits="userSpaceOnUse" gradientTransform="translate(32.214 73.5076) rotate(155.956) scale(2.20645 3.23389)">
<stop stop-color="white"/>
<stop offset="0.1" stop-color="white" stop-opacity="0.85"/>
<stop offset="0.29" stop-color="white" stop-opacity="0.59"/>
<stop offset="0.47" stop-color="white" stop-opacity="0.38"/>
<stop offset="0.63" stop-color="white" stop-opacity="0.22"/>
<stop offset="0.78" stop-color="white" stop-opacity="0.1"/>
<stop offset="0.91" stop-color="white" stop-opacity="0.03"/>
<stop offset="1" stop-color="white" stop-opacity="0"/>
</radialGradient>
<radialGradient id="paint9_radial_1_451" cx="0" cy="0" r="1" gradientUnits="userSpaceOnUse" gradientTransform="translate(36.4083 66.9126) rotate(30) scale(9.89 9.88999)">
<stop stop-color="#D4F6FF"/>
<stop offset="0.2" stop-color="#D9F7FF"/>
<stop offset="1" stop-color="#89C0F5"/>
</radialGradient>
<radialGradient id="paint10_radial_1_451" cx="0" cy="0" r="1" gradientUnits="userSpaceOnUse" gradientTransform="translate(49.4706 73.5077) rotate(155.956) scale(2.20645 3.23389)">
<stop stop-color="white"/>
<stop offset="0.1" stop-color="white" stop-opacity="0.85"/>
<stop offset="0.29" stop-color="white" stop-opacity="0.59"/>
<stop offset="0.47" stop-color="white" stop-opacity="0.38"/>
<stop offset="0.63" stop-color="white" stop-opacity="0.22"/>
<stop offset="0.78" stop-color="white" stop-opacity="0.1"/>
<stop offset="0.91" stop-color="white" stop-opacity="0.03"/>
<stop offset="1" stop-color="white" stop-opacity="0"/>
</radialGradient>
<radialGradient id="paint11_radial_1_451" cx="0" cy="0" r="1" gradientUnits="userSpaceOnUse" gradientTransform="translate(53.7064 66.9115) rotate(30.0001) scale(9.88997 9.88998)">
<stop stop-color="#D4F6FF"/>
<stop offset="0.2" stop-color="#D9F7FF"/>
<stop offset="1" stop-color="#89C0F5"/>
</radialGradient>
<radialGradient id="paint12_radial_1_451" cx="0" cy="0" r="1" gradientUnits="userSpaceOnUse" gradientTransform="translate(66.7474 73.5215) rotate(155.956) scale(2.20644 3.23389)">
<stop stop-color="white"/>
<stop offset="0.1" stop-color="white" stop-opacity="0.85"/>
<stop offset="0.29" stop-color="white" stop-opacity="0.59"/>
<stop offset="0.47" stop-color="white" stop-opacity="0.38"/>
<stop offset="0.63" stop-color="white" stop-opacity="0.22"/>
<stop offset="0.78" stop-color="white" stop-opacity="0.1"/>
<stop offset="0.91" stop-color="white" stop-opacity="0.03"/>
<stop offset="1" stop-color="white" stop-opacity="0"/>
</radialGradient>
</defs>
</svg>
