<svg width="71" height="70" viewBox="0 0 71 70" fill="none" xmlns="http://www.w3.org/2000/svg">
<path d="M70.2299 34.93C70.2299 41.7871 68.1965 48.4902 64.3869 54.1916C60.5774 59.8931 55.1627 64.3368 48.8276 66.9609C42.4924 69.585 35.5214 70.2716 28.7961 68.9338C22.0708 67.5961 15.8932 64.2941 11.0445 59.4454C6.19585 54.5967 2.89382 48.4191 1.55607 41.6938C0.218323 34.9685 0.904944 27.9975 3.52903 21.6624C6.15312 15.3272 10.5969 9.91252 16.2983 6.10294C21.9998 2.29335 28.7028 0.26001 35.5599 0.26001C44.755 0.26001 53.5734 3.91273 60.0753 10.4146C66.5772 16.9165 70.2299 25.7349 70.2299 34.93Z" fill="url(#paint0_radial_1_246)"/>
<g style="mix-blend-mode:overlay" opacity="0.5">
<path d="M30.5399 24.29C30.5404 32.7235 33.6158 40.8674 39.1898 47.1961C44.7638 53.5249 52.4541 57.6043 60.8199 58.67C61.6399 57.79 62.42 56.87 63.15 55.92C66.7512 51.0541 69.0148 45.3295 69.7153 39.3166C70.4158 33.3036 69.5289 27.212 67.1426 21.6485C64.7564 16.085 60.9542 11.2438 56.1148 7.60693C51.2754 3.97009 45.5676 1.66459 39.5599 0.920013C33.7365 7.30789 30.5182 15.6461 30.5399 24.29Z" fill="white"/>
</g>
<path d="M39.8799 0.540009C35.6063 5.23599 32.7048 11.0157 31.4921 17.2482C30.2793 23.4808 30.802 29.9267 33.0029 35.8825C35.2038 41.8383 38.9984 47.0751 43.9727 51.0213C48.9469 54.9675 54.9096 57.4715 61.2099 58.26C65.4799 53.5627 68.3783 47.7832 69.589 41.5518C70.7998 35.3203 70.2764 28.876 68.076 22.9215C65.8755 16.9671 62.0825 11.7311 57.1105 7.78436C52.1385 3.83767 46.1784 1.33181 39.8799 0.540009Z" fill="url(#paint1_radial_1_246)"/>
<path d="M11.3401 41.06C14.5901 40.77 16.92 37.06 16.54 32.81C16.16 28.56 13.2101 25.32 9.95008 25.62C6.69008 25.92 4.36006 29.62 4.74006 33.87C5.12006 38.12 8.0801 41.36 11.3401 41.06Z" fill="#B0B1B6"/>
<path d="M8.50987 44.16C6.50987 45.16 6.06984 48.09 7.40984 50.65C8.74984 53.21 11.4098 54.44 13.4098 53.42C15.4098 52.4 15.8499 49.49 14.5099 46.94C13.1699 44.39 10.4599 43.14 8.50987 44.16Z" fill="#B0B1B6"/>
<path d="M16.2401 41.08C15.0901 41.69 14.8001 43.4 15.5901 44.91C16.3801 46.42 17.9601 47.16 19.1201 46.55C20.2801 45.94 20.5601 44.23 19.7701 42.72C18.9801 41.21 17.4001 40.48 16.2401 41.08Z" fill="#B0B1B6"/>
<path d="M67.58 36.18C66.98 31.94 63.87 28.88 60.58 29.33C57.29 29.78 55.2099 33.6 55.8099 37.84C56.4099 42.08 59.5099 45.15 62.7499 44.69C65.9899 44.23 68.18 40.42 67.58 36.18Z" fill="#5D5F61"/>
<path d="M63.3 26.09C65.2 24.97 65.5401 22.09 64.0701 19.56C62.6001 17.03 59.8801 16 58.0001 17.1C56.1201 18.2 55.76 21.1 57.23 23.63C58.7 26.16 61.4 27.21 63.3 26.09Z" fill="#5D5F61"/>
<path d="M56.1901 25.7C55.3201 24.24 53.7101 23.58 52.5901 24.25C51.4701 24.92 51.2601 26.64 52.1301 28.1C53.0001 29.56 54.61 30.22 55.73 29.56C56.85 28.9 57.0601 27.17 56.1901 25.7Z" fill="#5D5F61"/>
<path style="mix-blend-mode:overlay" d="M30.3799 31.66C36.0599 21.81 35.3798 10.39 28.8498 6.15001C22.3198 1.91001 12.4199 6.47001 6.73986 16.31C1.05986 26.15 1.73989 37.58 8.26989 41.82C14.7999 46.06 24.6999 41.5 30.3799 31.66Z" fill="url(#paint2_radial_1_246)"/>
<path style="mix-blend-mode:overlay" opacity="0.4" d="M66.1199 49.44C66.2299 45.44 60.1199 45.04 52.3899 48.56C44.6599 52.08 38.3899 58.18 38.2499 62.19C38.1099 66.2 44.2499 66.59 51.9699 63.07C59.6899 59.55 65.9999 53.44 66.1199 49.44Z" fill="url(#paint3_radial_1_246)"/>
<defs>
<radialGradient id="paint0_radial_1_246" cx="0" cy="0" r="1" gradientUnits="userSpaceOnUse" gradientTransform="translate(27.6299 13.19) scale(65.81 65.81)">
<stop stop-color="#FCFCFC"/>
<stop offset="0.16" stop-color="#F1EDF5"/>
<stop offset="1" stop-color="#9FA1A6"/>
</radialGradient>
<radialGradient id="paint1_radial_1_246" cx="0" cy="0" r="1" gradientUnits="userSpaceOnUse" gradientTransform="translate(74.4399 -8.33999) scale(58.42 58.42)">
<stop stop-color="#FCFCFC"/>
<stop offset="0.16" stop-color="#ADAAB0"/>
<stop offset="1" stop-color="#6B6D70"/>
</radialGradient>
<radialGradient id="paint2_radial_1_246" cx="0" cy="0" r="1" gradientUnits="userSpaceOnUse" gradientTransform="translate(24.2023 37.0463) rotate(33.0239) scale(14.1405 20.5936)">
<stop stop-color="white"/>
<stop offset="0.1" stop-color="white" stop-opacity="0.85"/>
<stop offset="0.29" stop-color="white" stop-opacity="0.59"/>
<stop offset="0.47" stop-color="white" stop-opacity="0.38"/>
<stop offset="0.63" stop-color="white" stop-opacity="0.22"/>
<stop offset="0.78" stop-color="white" stop-opacity="0.1"/>
<stop offset="0.91" stop-color="white" stop-opacity="0.03"/>
<stop offset="1" stop-color="white" stop-opacity="0"/>
</radialGradient>
<radialGradient id="paint3_radial_1_246" cx="0" cy="0" r="1" gradientUnits="userSpaceOnUse" gradientTransform="translate(49.1619 65.2834) rotate(-24.6506) scale(15.3089 6.50326)">
<stop stop-color="white"/>
<stop offset="0.1" stop-color="white" stop-opacity="0.85"/>
<stop offset="0.29" stop-color="white" stop-opacity="0.59"/>
<stop offset="0.47" stop-color="white" stop-opacity="0.38"/>
<stop offset="0.63" stop-color="white" stop-opacity="0.22"/>
<stop offset="0.78" stop-color="white" stop-opacity="0.1"/>
<stop offset="0.91" stop-color="white" stop-opacity="0.03"/>
<stop offset="1" stop-color="white" stop-opacity="0"/>
</radialGradient>
</defs>
</svg>
