<svg width="90" height="77" viewBox="0 0 90 77" fill="none" xmlns="http://www.w3.org/2000/svg">
<path d="M34.2801 34.41C34.284 38.6401 35.5421 42.7741 37.8953 46.2892C40.2486 49.8044 43.5912 52.5428 47.5006 54.1584C51.41 55.774 55.7107 56.1942 59.8589 55.3658C64.0071 54.5374 67.8166 52.4976 70.8057 49.5044C73.7947 46.5111 75.8291 42.6988 76.6517 38.5495C77.4743 34.4001 77.0481 30.1 75.4271 26.1928C73.806 22.2857 71.0628 18.9469 67.5444 16.5986C64.0259 14.2503 59.8901 12.998 55.66 13C52.8498 13 50.0673 13.554 47.4714 14.6303C44.8755 15.7066 42.5172 17.2841 40.5315 19.2726C38.5458 21.2611 36.9716 23.6216 35.8989 26.219C34.8262 28.8164 34.2761 31.5998 34.2801 34.41Z" fill="url(#paint0_radial_1_22)"/>
<path style="mix-blend-mode:overlay" d="M58.92 32.22C53.48 27.79 51.35 21.07 54.17 17.22C56.99 13.37 63.7 13.77 69.17 18.22C74.64 22.67 76.74 29.36 73.92 33.22C71.1 37.08 64.37 36.63 58.92 32.22Z" fill="url(#paint1_radial_1_22)"/>
<path style="mix-blend-mode:overlay" opacity="0.4" d="M36.76 39.14C37.48 36.78 41.15 37.76 44.96 41.33C48.77 44.9 51.26 49.72 50.54 52.09C49.82 54.46 46.16 53.47 42.35 49.9C38.54 46.33 36 41.5 36.76 39.14Z" fill="url(#paint2_radial_1_22)"/>
<path d="M58.2601 6.70998C58.2601 7.05095 58.1928 7.38856 58.062 7.70345C57.9312 8.01833 57.7395 8.3043 57.4979 8.54493C57.2564 8.78557 56.9697 8.97614 56.6543 9.10571C56.3389 9.23528 56.001 9.3013 55.6601 9.29998C54.9731 9.29998 54.3144 9.0271 53.8287 8.54139C53.343 8.05567 53.0701 7.39689 53.0701 6.70998V2.99998C53.0688 2.65902 53.1348 2.32115 53.2644 2.00576C53.3939 1.69037 53.5845 1.40367 53.8252 1.16211C54.0658 0.920542 54.3518 0.728868 54.6666 0.598084C54.9815 0.467299 55.3191 0.39998 55.6601 0.399983C56.0019 0.39866 56.3406 0.465006 56.6566 0.5952C56.9727 0.725394 57.2598 0.916858 57.5015 1.15855C57.7432 1.40025 57.9346 1.6874 58.0648 2.00344C58.195 2.31948 58.2614 2.65817 58.2601 2.99998V6.70998Z" fill="url(#paint3_radial_1_22)"/>
<path d="M37.9 13C38.1428 13.2399 38.3355 13.5257 38.4671 13.8407C38.5987 14.1557 38.6664 14.4936 38.6664 14.835C38.6664 15.1763 38.5987 15.5143 38.4671 15.8293C38.3355 16.1443 38.1428 16.43 37.9 16.67C37.4144 17.1548 36.7562 17.4272 36.07 17.4272C35.3838 17.4272 34.7256 17.1548 34.24 16.67L31.63 14.07C31.1445 13.5827 30.8719 12.9228 30.8719 12.235C30.8719 11.5471 31.1445 10.8873 31.63 10.4C31.87 10.1572 32.1557 9.96444 32.4707 9.83289C32.7857 9.70133 33.1236 9.63359 33.465 9.63359C33.8064 9.63359 34.1443 9.70133 34.4593 9.83289C34.7743 9.96444 35.06 10.1572 35.3 10.4L37.9 13Z" fill="url(#paint4_radial_1_22)"/>
<path d="M28 31.82C28.3418 31.8187 28.6805 31.885 28.9965 32.0152C29.3126 32.1454 29.5997 32.3369 29.8414 32.5786C30.0831 32.8203 30.2746 33.1074 30.4048 33.4234C30.535 33.7395 30.6013 34.0782 30.6 34.42C30.5987 34.7601 30.5304 35.0966 30.399 35.4104C30.2676 35.7241 30.0758 36.0089 29.8343 36.2485C29.5929 36.488 29.3066 36.6777 28.9919 36.8067C28.6772 36.9356 28.3401 37.0013 28 37H24.32C23.6331 37 22.9743 36.7271 22.4886 36.2414C22.0029 35.7557 21.73 35.0969 21.73 34.41C21.7287 34.069 21.7947 33.7312 21.9243 33.4158C22.0538 33.1004 22.2444 32.8137 22.485 32.5721C22.7257 32.3305 23.0116 32.1389 23.3265 32.0081C23.6414 31.8773 23.979 31.81 24.32 31.81L28 31.82Z" fill="url(#paint5_radial_1_22)"/>
<path d="M34.24 52.18C34.4791 51.9375 34.764 51.7449 35.0782 51.6135C35.3923 51.4821 35.7295 51.4144 36.07 51.4144C36.4105 51.4144 36.7477 51.4821 37.0618 51.6135C37.376 51.7449 37.6609 51.9375 37.9 52.18C38.1425 52.4191 38.335 52.704 38.4665 53.0181C38.5979 53.3323 38.6656 53.6694 38.6656 54.01C38.6656 54.3505 38.5979 54.6877 38.4665 55.0018C38.335 55.316 38.1425 55.6009 37.9 55.84L35.3 58.45C34.8127 58.9354 34.1529 59.208 33.465 59.208C32.7771 59.208 32.1173 58.9354 31.63 58.45C31.1445 57.9627 30.8719 57.3028 30.8719 56.615C30.8719 55.9271 31.1445 55.2673 31.63 54.78L34.24 52.18Z" fill="url(#paint6_radial_1_22)"/>
<path d="M53.0701 62.13C53.0688 61.789 53.1348 61.4511 53.2644 61.1358C53.3939 60.8204 53.5845 60.5337 53.8252 60.2921C54.0658 60.0505 54.3518 59.8589 54.6666 59.7281C54.9815 59.5973 55.3191 59.53 55.6601 59.53C56.0019 59.5287 56.3406 59.595 56.6566 59.7252C56.9727 59.8554 57.2598 60.0469 57.5015 60.2885C57.7432 60.5302 57.9346 60.8174 58.0648 61.1334C58.195 61.4495 58.2614 61.7882 58.2601 62.13V65.81C58.2601 66.4969 57.9872 67.1557 57.5015 67.6414C57.0158 68.1271 56.357 68.4 55.6701 68.4C55.3291 68.4013 54.9913 68.3353 54.6759 68.2057C54.3605 68.0761 54.0738 67.8856 53.8322 67.6449C53.5907 67.4043 53.399 67.1183 53.2682 66.8034C53.1374 66.4886 53.0701 66.1509 53.0701 65.81V62.13Z" fill="url(#paint7_radial_1_22)"/>
<path d="M73.42 55.84C72.9351 55.3544 72.6628 54.6962 72.6628 54.01C72.6628 53.3238 72.9351 52.6656 73.42 52.18C73.6599 51.9372 73.9457 51.7444 74.2607 51.6129C74.5757 51.4813 74.9136 51.4136 75.255 51.4136C75.5964 51.4136 75.9343 51.4813 76.2493 51.6129C76.5643 51.7444 76.8501 51.9372 77.09 52.18L79.69 54.78C79.9316 55.0206 80.1233 55.3066 80.2541 55.6215C80.3849 55.9364 80.4522 56.274 80.4522 56.615C80.4522 56.956 80.3849 57.2936 80.2541 57.6085C80.1233 57.9234 79.9316 58.2093 79.69 58.45C79.2027 58.9355 78.5428 59.208 77.855 59.208C77.1671 59.208 76.5073 58.9355 76.02 58.45L73.42 55.84Z" fill="url(#paint8_radial_1_22)"/>
<path d="M83.37 37C82.6831 37 82.0243 36.7271 81.5386 36.2414C81.0529 35.7557 80.78 35.0969 80.78 34.41C80.7787 34.069 80.8448 33.7311 80.9743 33.4158C81.1039 33.1004 81.2944 32.8137 81.5351 32.5721C81.7757 32.3305 82.0617 32.1389 82.3765 32.0081C82.6914 31.8773 83.029 31.81 83.37 31.81H87.05C87.391 31.8087 87.7289 31.8747 88.0443 32.0042C88.3597 32.1338 88.6463 32.3244 88.8879 32.565C89.1295 32.8057 89.3211 33.0916 89.4519 33.4065C89.5827 33.7214 89.65 34.059 89.65 34.4C89.6514 34.7418 89.585 35.0805 89.4548 35.3965C89.3246 35.7126 89.1331 35.9997 88.8914 36.2414C88.6497 36.4831 88.3626 36.6746 88.0465 36.8048C87.7305 36.9349 87.3918 37.0013 87.05 37H83.37Z" fill="url(#paint9_radial_1_22)"/>
<path d="M77.09 16.66C76.6027 17.1454 75.9428 17.418 75.2549 17.418C74.5671 17.418 73.9072 17.1454 73.4199 16.66C72.9345 16.1727 72.6619 15.5128 72.6619 14.825C72.6619 14.1371 72.9345 13.4773 73.4199 12.99L76.03 10.39C76.2697 10.1487 76.5548 9.95722 76.8689 9.82656C77.183 9.6959 77.5198 9.62863 77.8599 9.62863C78.2001 9.62863 78.5369 9.6959 78.851 9.82656C79.165 9.95722 79.4502 10.1487 79.6899 10.39C79.9327 10.6299 80.1255 10.9157 80.257 11.2307C80.3886 11.5457 80.4564 11.8836 80.4564 12.225C80.4564 12.5663 80.3886 12.9043 80.257 13.2193C80.1255 13.5343 79.9327 13.82 79.6899 14.06L77.09 16.66Z" fill="url(#paint10_radial_1_22)"/>
<path d="M28.31 20.25C34.6069 20.2509 40.721 22.3669 45.6715 26.2584C50.6221 30.1499 54.122 35.5914 55.61 41.71C58.081 40.5155 60.7896 39.8934 63.5343 39.89C66.2789 39.8866 68.989 40.5019 71.463 41.6903C73.9371 42.8787 76.1114 44.6094 77.8243 46.754C79.5372 48.8985 80.7447 51.4015 81.3569 54.077C81.9691 56.7525 81.9703 59.5316 81.3604 62.2076C80.7505 64.8836 79.5452 67.3877 77.8341 69.5337C76.123 71.6797 73.9502 73.4124 71.4772 74.6029C69.0042 75.7933 66.2946 76.411 63.55 76.41H28.31C20.8627 76.41 13.7204 73.4516 8.45441 68.1855C3.18839 62.9195 0.22998 55.7773 0.22998 48.33C0.22998 40.8827 3.18839 33.7404 8.45441 28.4744C13.7204 23.2084 20.8627 20.25 28.31 20.25Z" fill="url(#paint11_radial_1_22)"/>
<path d="M28.31 20.25C34.6069 20.2509 40.721 22.3669 45.6715 26.2584C50.6221 30.1499 54.122 35.5914 55.61 41.71C58.081 40.5155 60.7896 39.8934 63.5343 39.89C66.2789 39.8866 68.989 40.5019 71.463 41.6903C73.9371 42.8787 76.1114 44.6094 77.8243 46.754C79.5372 48.8985 80.7447 51.4015 81.3569 54.077C81.9691 56.7525 81.9703 59.5316 81.3604 62.2076C80.7505 64.8836 79.5452 67.3877 77.8341 69.5337C76.123 71.6797 73.9502 73.4124 71.4772 74.6029C69.0042 75.7933 66.2946 76.411 63.55 76.41H28.31C20.8627 76.41 13.7204 73.4516 8.45441 68.1855C3.18839 62.9195 0.22998 55.7773 0.22998 48.33C0.22998 40.8827 3.18839 33.7404 8.45441 28.4744C13.7204 23.2084 20.8627 20.25 28.31 20.25Z" fill="url(#paint12_radial_1_22)"/>
<path style="mix-blend-mode:overlay" d="M24.72 47.08C32.03 41.15 34.89 32.08 31.09 26.91C27.29 21.74 18.3 22.28 11 28.21C3.7 34.14 0.840005 43.21 4.63001 48.38C8.42001 53.55 17.41 53 24.72 47.08Z" fill="url(#paint13_radial_1_22)"/>
<path style="mix-blend-mode:overlay" opacity="0.4" d="M61.51 54.79C65.51 51.53 67.1 46.56 65.02 43.7C62.94 40.84 58.02 41.15 54.02 44.41C50.02 47.67 48.43 52.64 50.51 55.5C52.59 58.36 57.5 58.05 61.51 54.79Z" fill="url(#paint14_radial_1_22)"/>
<path style="mix-blend-mode:overlay" opacity="0.2" d="M70.4299 61.89C74.8499 57.42 79.4299 55.67 80.6299 57.98C81.8299 60.29 79.2499 65.79 74.8299 70.27C70.4099 74.75 65.8299 76.49 64.6199 74.17C63.4099 71.85 65.9999 66.36 70.4299 61.89Z" fill="url(#paint15_radial_1_22)"/>
<defs>
<radialGradient id="paint0_radial_1_22" cx="0" cy="0" r="1" gradientUnits="userSpaceOnUse" gradientTransform="translate(60.5501 21.01) rotate(180) scale(40.6 40.6)">
<stop stop-color="#FFF8C7"/>
<stop offset="0.16" stop-color="#FFE436"/>
<stop offset="1" stop-color="#FE761C"/>
</radialGradient>
<radialGradient id="paint1_radial_1_22" cx="0" cy="0" r="1" gradientUnits="userSpaceOnUse" gradientTransform="translate(65.3828 16.2688) rotate(126.146) scale(8.67285 12.6725)">
<stop stop-color="white"/>
<stop offset="0.1" stop-color="white" stop-opacity="0.85"/>
<stop offset="0.29" stop-color="white" stop-opacity="0.59"/>
<stop offset="0.47" stop-color="white" stop-opacity="0.38"/>
<stop offset="0.63" stop-color="white" stop-opacity="0.22"/>
<stop offset="0.78" stop-color="white" stop-opacity="0.1"/>
<stop offset="0.91" stop-color="white" stop-opacity="0.03"/>
<stop offset="1" stop-color="white" stop-opacity="0"/>
</radialGradient>
<radialGradient id="paint2_radial_1_22" cx="0" cy="0" r="1" gradientUnits="userSpaceOnUse" gradientTransform="translate(32.0962 37.8183) rotate(-136.766) scale(9.44265 4.01338)">
<stop stop-color="white"/>
<stop offset="0.1" stop-color="white" stop-opacity="0.85"/>
<stop offset="0.29" stop-color="white" stop-opacity="0.59"/>
<stop offset="0.47" stop-color="white" stop-opacity="0.38"/>
<stop offset="0.63" stop-color="white" stop-opacity="0.22"/>
<stop offset="0.78" stop-color="white" stop-opacity="0.1"/>
<stop offset="0.91" stop-color="white" stop-opacity="0.03"/>
<stop offset="1" stop-color="white" stop-opacity="0"/>
</radialGradient>
<radialGradient id="paint3_radial_1_22" cx="0" cy="0" r="1" gradientUnits="userSpaceOnUse" gradientTransform="translate(56.1401 1.73998) scale(7.06 7.06)">
<stop stop-color="#FFF8C7"/>
<stop offset="0.16" stop-color="#FFE436"/>
<stop offset="1" stop-color="#FE761C"/>
</radialGradient>
<radialGradient id="paint4_radial_1_22" cx="0" cy="0" r="1" gradientUnits="userSpaceOnUse" gradientTransform="translate(32.8916 10.9735) rotate(-45) scale(7.06)">
<stop stop-color="#FFF8C7"/>
<stop offset="0.16" stop-color="#FFE436"/>
<stop offset="1" stop-color="#FE761C"/>
</radialGradient>
<radialGradient id="paint5_radial_1_22" cx="0" cy="0" r="1" gradientUnits="userSpaceOnUse" gradientTransform="translate(22.99 33.94) rotate(-90) scale(7.06 7.06)">
<stop stop-color="#FFF8C7"/>
<stop offset="0.16" stop-color="#FFE436"/>
<stop offset="1" stop-color="#FE761C"/>
</radialGradient>
<radialGradient id="paint6_radial_1_22" cx="0" cy="0" r="1" gradientUnits="userSpaceOnUse" gradientTransform="translate(32.2186 57.1744) rotate(-135) scale(7.06)">
<stop stop-color="#FFF8C7"/>
<stop offset="0.16" stop-color="#FFE436"/>
<stop offset="1" stop-color="#FE761C"/>
</radialGradient>
<radialGradient id="paint7_radial_1_22" cx="0" cy="0" r="1" gradientUnits="userSpaceOnUse" gradientTransform="translate(55.2001 67.1) rotate(180) scale(7.06)">
<stop stop-color="#FFF8C7"/>
<stop offset="0.16" stop-color="#FFE436"/>
<stop offset="1" stop-color="#FE761C"/>
</radialGradient>
<radialGradient id="paint8_radial_1_22" cx="0" cy="0" r="1" gradientUnits="userSpaceOnUse" gradientTransform="translate(78.4195 57.8474) rotate(135) scale(7.06)">
<stop stop-color="#FFF8C7"/>
<stop offset="0.16" stop-color="#FFE436"/>
<stop offset="1" stop-color="#FE761C"/>
</radialGradient>
<radialGradient id="paint9_radial_1_22" cx="0" cy="0" r="1" gradientUnits="userSpaceOnUse" gradientTransform="translate(88.34 34.89) rotate(90) scale(7.06 7.06)">
<stop stop-color="#FFF8C7"/>
<stop offset="0.16" stop-color="#FFE436"/>
<stop offset="1" stop-color="#FE761C"/>
</radialGradient>
<radialGradient id="paint10_radial_1_22" cx="0" cy="0" r="1" gradientUnits="userSpaceOnUse" gradientTransform="translate(79.1024 11.6465) rotate(44.9998) scale(7.06002)">
<stop stop-color="#FFF8C7"/>
<stop offset="0.16" stop-color="#FFE436"/>
<stop offset="1" stop-color="#FE761C"/>
</radialGradient>
<radialGradient id="paint11_radial_1_22" cx="0" cy="0" r="1" gradientUnits="userSpaceOnUse" gradientTransform="translate(17.79 27.96) rotate(180) scale(69.73 69.73)">
<stop stop-color="white"/>
<stop offset="0.2" stop-color="#D9F7FF"/>
<stop offset="1" stop-color="#89C0F5"/>
</radialGradient>
<radialGradient id="paint12_radial_1_22" cx="0" cy="0" r="1" gradientUnits="userSpaceOnUse" gradientTransform="translate(50.15 34.3) scale(39.84 39.84)">
<stop stop-color="#FFE436"/>
<stop offset="0.08" stop-color="#FFCF31" stop-opacity="0.81"/>
<stop offset="0.18" stop-color="#FFB72B" stop-opacity="0.6"/>
<stop offset="0.28" stop-color="#FEA327" stop-opacity="0.41"/>
<stop offset="0.38" stop-color="#FE9323" stop-opacity="0.26"/>
<stop offset="0.48" stop-color="#FE8620" stop-opacity="0.15"/>
<stop offset="0.58" stop-color="#FE7D1E" stop-opacity="0.07"/>
<stop offset="0.68" stop-color="#FE781C" stop-opacity="0.02"/>
<stop offset="0.77" stop-color="#FE761C" stop-opacity="0"/>
</radialGradient>
<radialGradient id="paint13_radial_1_22" cx="0" cy="0" r="1" gradientUnits="userSpaceOnUse" gradientTransform="translate(15.582 29.2909) rotate(53.8543) scale(11.6492 17.0215)">
<stop stop-color="white"/>
<stop offset="0.1" stop-color="white" stop-opacity="0.85"/>
<stop offset="0.29" stop-color="white" stop-opacity="0.59"/>
<stop offset="0.47" stop-color="white" stop-opacity="0.38"/>
<stop offset="0.63" stop-color="white" stop-opacity="0.22"/>
<stop offset="0.78" stop-color="white" stop-opacity="0.1"/>
<stop offset="0.91" stop-color="white" stop-opacity="0.03"/>
<stop offset="1" stop-color="white" stop-opacity="0"/>
</radialGradient>
<radialGradient id="paint14_radial_1_22" cx="0" cy="0" r="1" gradientUnits="userSpaceOnUse" gradientTransform="translate(55.527 41.1846) rotate(53.8543) scale(6.40851 9.36393)">
<stop stop-color="white"/>
<stop offset="0.1" stop-color="white" stop-opacity="0.85"/>
<stop offset="0.29" stop-color="white" stop-opacity="0.59"/>
<stop offset="0.47" stop-color="white" stop-opacity="0.38"/>
<stop offset="0.63" stop-color="white" stop-opacity="0.22"/>
<stop offset="0.78" stop-color="white" stop-opacity="0.1"/>
<stop offset="0.91" stop-color="white" stop-opacity="0.03"/>
<stop offset="1" stop-color="white" stop-opacity="0"/>
</radialGradient>
<radialGradient id="paint15_radial_1_22" cx="0" cy="0" r="1" gradientUnits="userSpaceOnUse" gradientTransform="translate(65.2512 63.2109) rotate(-147.061) scale(3.97616 10.7962)">
<stop stop-color="white"/>
<stop offset="0.1" stop-color="white" stop-opacity="0.85"/>
<stop offset="0.29" stop-color="white" stop-opacity="0.59"/>
<stop offset="0.47" stop-color="white" stop-opacity="0.38"/>
<stop offset="0.63" stop-color="white" stop-opacity="0.22"/>
<stop offset="0.78" stop-color="white" stop-opacity="0.1"/>
<stop offset="0.91" stop-color="white" stop-opacity="0.03"/>
<stop offset="1" stop-color="white" stop-opacity="0"/>
</radialGradient>
</defs>
</svg>
