<svg width="69" height="67" viewBox="0 0 69 67" fill="none" xmlns="http://www.w3.org/2000/svg">
<path d="M36.54 27.26C36.54 31.5406 38.2405 35.6459 41.2673 38.6727C44.2942 41.6995 48.3995 43.4 52.6801 43.4C56.9606 43.4 61.0659 41.6995 64.0928 38.6727C67.1196 35.6459 68.8201 31.5406 68.8201 27.26C68.8201 18.34 52.6801 0.26001 52.6801 0.26001C52.6801 0.26001 36.54 18.34 36.54 27.26Z" fill="url(#paint0_radial_1_434)"/>
<path style="mix-blend-mode:overlay" opacity="0.6" d="M62.83 40.24C68.26 35.84 70.3899 29.13 67.5699 25.24C64.7499 21.35 58.0599 21.79 52.5699 26.24C47.0799 30.69 45.01 37.38 47.83 41.24C50.65 45.1 57.4 44.66 62.83 40.24Z" fill="url(#paint1_radial_1_434)"/>
<path style="mix-blend-mode:overlay" opacity="0.3" d="M41.8801 14.45C39.1801 19.58 38.88 24.08 41.29 24.51C43.7 24.94 47.77 21.12 50.47 15.98C53.17 10.84 53.4701 6.34999 51.0601 5.92999C48.6501 5.50999 44.5801 9.32001 41.8801 14.45Z" fill="url(#paint2_radial_1_434)"/>
<path d="M45.4199 43.14C45.4831 46.1419 44.9465 49.1263 43.8414 51.9181C42.7363 54.7099 41.085 57.2531 38.9843 59.3985C36.8836 61.5439 34.3758 63.2483 31.6078 64.4119C28.8399 65.5756 25.8675 66.175 22.8649 66.175C19.8623 66.175 16.89 65.5756 14.122 64.4119C11.3541 63.2483 8.84623 61.5439 6.74554 59.3985C4.64485 57.2531 2.99358 54.7099 1.88848 51.9181C0.783387 49.1263 0.24672 46.1419 0.309932 43.14C0.309932 30.68 22.8599 5.41 22.8599 5.41C22.8599 5.41 45.4099 30.69 45.4199 43.14Z" fill="url(#paint3_radial_1_434)"/>
<path style="mix-blend-mode:overlay" opacity="0.6" d="M8.67 61.29C1.08 55.13 -1.89999 45.75 2.05001 40.29C6.00001 34.83 15.34 35.48 22.94 41.64C30.54 47.8 33.5 57.2 29.56 62.64C25.62 68.08 16.26 67.46 8.67 61.29Z" fill="url(#paint4_radial_1_434)"/>
<path style="mix-blend-mode:overlay" opacity="0.3" d="M37.9999 25.25C41.7699 32.42 42.14 38.71 38.83 39.31C35.52 39.91 29.7699 34.56 25.9999 27.39C22.2299 20.22 21.8599 13.93 25.1699 13.33C28.4799 12.73 34.1799 18.08 37.9999 25.25Z" fill="url(#paint5_radial_1_434)"/>
<defs>
<radialGradient id="paint0_radial_1_434" cx="0" cy="0" r="1" gradientUnits="userSpaceOnUse" gradientTransform="translate(57.7601 33.42) rotate(180) scale(35.05 35.05)">
<stop stop-color="#B0FFEE"/>
<stop offset="0.19" stop-color="#66AFFF"/>
<stop offset="1" stop-color="#446CF5"/>
</radialGradient>
<radialGradient id="paint1_radial_1_434" cx="0" cy="0" r="1" gradientUnits="userSpaceOnUse" gradientTransform="translate(54.9688 25.9273) rotate(53.8543) scale(8.65861 12.6517)">
<stop stop-color="white"/>
<stop offset="0.1" stop-color="white" stop-opacity="0.85"/>
<stop offset="0.29" stop-color="white" stop-opacity="0.59"/>
<stop offset="0.47" stop-color="white" stop-opacity="0.38"/>
<stop offset="0.63" stop-color="white" stop-opacity="0.22"/>
<stop offset="0.78" stop-color="white" stop-opacity="0.1"/>
<stop offset="0.91" stop-color="white" stop-opacity="0.03"/>
<stop offset="1" stop-color="white" stop-opacity="0"/>
</radialGradient>
<radialGradient id="paint2_radial_1_434" cx="0" cy="0" r="1" gradientUnits="userSpaceOnUse" gradientTransform="translate(45.8011 21.8462) rotate(-140.807) scale(3.63991 9.97742)">
<stop stop-color="white"/>
<stop offset="0.1" stop-color="white" stop-opacity="0.85"/>
<stop offset="0.29" stop-color="white" stop-opacity="0.59"/>
<stop offset="0.47" stop-color="white" stop-opacity="0.38"/>
<stop offset="0.63" stop-color="white" stop-opacity="0.22"/>
<stop offset="0.78" stop-color="white" stop-opacity="0.1"/>
<stop offset="0.91" stop-color="white" stop-opacity="0.03"/>
<stop offset="1" stop-color="white" stop-opacity="0"/>
</radialGradient>
<radialGradient id="paint3_radial_1_434" cx="0" cy="0" r="1" gradientUnits="userSpaceOnUse" gradientTransform="translate(15.7499 51.75) scale(48.99 48.99)">
<stop stop-color="#B0FFEE"/>
<stop offset="0.19" stop-color="#66AFFF"/>
<stop offset="1" stop-color="#446CF5"/>
</radialGradient>
<radialGradient id="paint4_radial_1_434" cx="0" cy="0" r="1" gradientUnits="userSpaceOnUse" gradientTransform="translate(17.1886 43.2407) rotate(126.146) scale(12.105 17.6874)">
<stop stop-color="white"/>
<stop offset="0.1" stop-color="white" stop-opacity="0.85"/>
<stop offset="0.29" stop-color="white" stop-opacity="0.59"/>
<stop offset="0.47" stop-color="white" stop-opacity="0.38"/>
<stop offset="0.63" stop-color="white" stop-opacity="0.22"/>
<stop offset="0.78" stop-color="white" stop-opacity="0.1"/>
<stop offset="0.91" stop-color="white" stop-opacity="0.03"/>
<stop offset="1" stop-color="white" stop-opacity="0"/>
</radialGradient>
<radialGradient id="paint5_radial_1_434" cx="0" cy="0" r="1" gradientUnits="userSpaceOnUse" gradientTransform="translate(37.2548 24.5368) rotate(-39.1933) scale(5.08246 13.9316)">
<stop stop-color="white"/>
<stop offset="0.1" stop-color="white" stop-opacity="0.85"/>
<stop offset="0.29" stop-color="white" stop-opacity="0.59"/>
<stop offset="0.47" stop-color="white" stop-opacity="0.38"/>
<stop offset="0.63" stop-color="white" stop-opacity="0.22"/>
<stop offset="0.78" stop-color="white" stop-opacity="0.1"/>
<stop offset="0.91" stop-color="white" stop-opacity="0.03"/>
<stop offset="1" stop-color="white" stop-opacity="0"/>
</radialGradient>
</defs>
</svg>
